<svg version="1.2" xmlns="http://www.w3.org/2000/svg" viewBox="0 0 3000 2500" width="3000" height="2500"><defs><linearGradient id="P" gradientUnits="userSpaceOnUse"/><linearGradient id="g1" x2="1" href="#P" gradientTransform="matrix(714.854,928.34,-993.932,765.361,1817.162,962.803)"><stop stop-color="#050101"/><stop offset="1"/></linearGradient><linearGradient id="g2" x2="1" href="#P" gradientTransform="matrix(361.597,469.585,-343.783,264.725,1195.056,1521.551)"><stop stop-color="#050101"/><stop offset="1"/></linearGradient><linearGradient id="g3" x2="1" href="#P" gradientTransform="matrix(183.485,238.281,-146.904,113.121,831.627,1884.735)"><stop stop-color="#050101"/><stop offset="1"/></linearGradient><linearGradient id="g4" x2="1" href="#P" gradientTransform="matrix(498.723,647.664,-676.657,521.049,2274.132,718.794)"><stop stop-color="#050101"/><stop offset="1"/></linearGradient><linearGradient id="g5" x2="1" href="#P" gradientTransform="matrix(617.666,802.128,-845.008,650.685,1000.125,602.218)"><stop stop-color="#050101"/><stop offset="1"/></linearGradient><linearGradient id="g6" x2="1" href="#P" gradientTransform="matrix(-18.376,-33.716,46.755,-25.482,999.649,1080.526)"><stop stop-color="#cc4b23"/><stop offset="1" stop-color="#f25227"/></linearGradient><linearGradient id="g7" x2="1" href="#P" gradientTransform="matrix(-18.376,-33.716,46.755,-25.482,1110.89,1015.532)"><stop stop-color="#cc4b23"/><stop offset="1" stop-color="#f25227"/></linearGradient><linearGradient id="g8" x2="1" href="#P" gradientTransform="matrix(-18.376,-33.716,46.755,-25.482,1222.131,950.538)"><stop stop-color="#cc4b23"/><stop offset="1" stop-color="#f25227"/></linearGradient><linearGradient id="g9" x2="1" href="#P" gradientTransform="matrix(-18.376,-33.716,46.755,-25.482,1333.372,885.545)"><stop stop-color="#cc4b23"/><stop offset="1" stop-color="#f25227"/></linearGradient><linearGradient id="g10" x2="1" href="#P" gradientTransform="matrix(-876.53,265.615,-241.666,-797.498,1418.637,931.881)"><stop stop-color="#63dbbf"/><stop offset="1" stop-color="#7cdac9"/></linearGradient><linearGradient id="g11" x2="1" href="#P" gradientTransform="matrix(-795.832,241.161,-139.716,-461.061,1328.878,909.335)"><stop stop-color="#fff"/><stop offset="1" stop-color="#7cdac9"/></linearGradient><linearGradient id="g12" x2="1" href="#P" gradientTransform="matrix(307.345,0,0,490.721,1586.718,316.278)"><stop stop-color="#63dbbf"/><stop offset="1" stop-color="#7cdac9"/></linearGradient><linearGradient id="g13" x2="1" href="#P" gradientTransform="matrix(296.327,0,0,489.509,1586.718,316.283)"><stop stop-color="#66dbc0"/><stop offset="1" stop-color="#fff"/></linearGradient><linearGradient id="g14" x2="1" href="#P" gradientTransform="matrix(1058.535,0,0,623.8,1086.207,1253.234)"><stop stop-color="#52897a"/><stop offset="1" stop-color="#309e98"/></linearGradient><linearGradient id="g15" x2="1" href="#P" gradientTransform="matrix(1058.535,0,0,623.8,1086.207,1231.644)"><stop stop-color="#86e2d0"/><stop offset="1" stop-color="#309e98"/></linearGradient><linearGradient id="g16" x2="1" href="#P" gradientTransform="matrix(-319.618,321.628,-333.324,-331.24,1684.88,1361.552)"><stop stop-color="#ffac06"/><stop offset="1" stop-color="#f66c1e"/></linearGradient><linearGradient id="g17" x2="1" href="#P" gradientTransform="matrix(-319.618,321.628,-333.323,-331.24,1704.926,1299.053)"><stop stop-color="#ffac06"/><stop offset="1" stop-color="#f66c1e"/></linearGradient><linearGradient id="g18" x2="1" href="#P" gradientTransform="matrix(-319.618,321.628,-333.323,-331.24,1724.973,1236.553)"><stop stop-color="#ffac06"/><stop offset="1" stop-color="#f66c1e"/></linearGradient><linearGradient id="g19" x2="1" href="#P" gradientTransform="matrix(-319.618,321.628,-333.324,-331.241,1745.019,1174.054)"><stop stop-color="#ffac06"/><stop offset="1" stop-color="#f66c1e"/></linearGradient><linearGradient id="g20" x2="1" href="#P" gradientTransform="matrix(152.503,0,0,87.513,1709.217,1373.616)"><stop stop-color="#ffac06"/><stop offset="1" stop-color="#f66c1e"/></linearGradient><linearGradient id="g21" x2="1" href="#P" gradientTransform="matrix(206.929,0,0,113.957,1816.254,1295.956)"><stop stop-color="#ffac06"/><stop offset="1" stop-color="#f66c1e"/></linearGradient><linearGradient id="g22" x2="1" href="#P" gradientTransform="matrix(263.634,441.588,-1839.823,1098.4,1968.924,1468.727)"><stop stop-color="#86e2d0"/><stop offset="1" stop-color="#309e98"/></linearGradient><linearGradient id="g23" x2="1" href="#P" gradientTransform="matrix(352.23,0,0,221.564,1817.016,1627.423)"><stop stop-color="#52897a"/><stop offset="1" stop-color="#309e98"/></linearGradient><linearGradient id="g24" x2="1" href="#P" gradientTransform="matrix(96.488,161.618,-209.42,125.027,2206.155,1528.376)"><stop stop-color="#ffac06"/><stop offset="1" stop-color="#f66c1e"/></linearGradient><linearGradient id="g25" x2="1" href="#P" gradientTransform="matrix(109.489,183.395,-227.84,136.024,1802.705,1737.411)"><stop stop-color="#ffac06"/><stop offset="1" stop-color="#f66c1e"/></linearGradient><linearGradient id="g26" x2="1" href="#P" gradientTransform="matrix(-281.265,422.619,-501.219,-333.575,1775.807,1711.223)"><stop stop-color="#86e2d0"/><stop offset="1" stop-color="#fff"/></linearGradient><linearGradient id="g27" x2="1" href="#P" gradientTransform="matrix(-430.905,291.187,-131.818,-195.067,2471.142,1014.953)"><stop stop-color="#57bdb2"/><stop offset="1" stop-color="#6ee3cc"/></linearGradient><linearGradient id="g28" x2="1" href="#P" gradientTransform="matrix(-80.644,290.108,-222.227,-61.774,2491.347,1008.093)"><stop stop-color="#4fb2a4"/><stop offset="1" stop-color="#1f6d4f"/></linearGradient><linearGradient id="g29" x2="1" href="#P" gradientTransform="matrix(211.314,0,0,271.783,1813.61,1064.41)"><stop stop-color="#57bdb2"/><stop offset="1" stop-color="#6ee3cc"/></linearGradient><linearGradient id="g30" x2="1" href="#P" gradientTransform="matrix(219.119,0,0,91.856,2328.253,1215.166)"><stop stop-color="#b58252"/><stop offset=".3" stop-color="#ddb277"/><stop offset=".48" stop-color="#bb8958"/><stop offset=".72" stop-color="#b27e4f"/><stop offset="1" stop-color="#b27e4f"/></linearGradient><linearGradient id="g31" x2="1" href="#P" gradientTransform="matrix(219.119,0,0,126.471,2328.253,1151.931)"><stop stop-color="#dcb274"/><stop offset="1" stop-color="#ffdc96"/></linearGradient><linearGradient id="g32" x2="1" href="#P" gradientTransform="matrix(219.119,0,0,91.856,2328.253,1177.541)"><stop stop-color="#b58252"/><stop offset=".3" stop-color="#ddb277"/><stop offset=".48" stop-color="#bb8958"/><stop offset=".72" stop-color="#b27e4f"/><stop offset="1" stop-color="#b27e4f"/></linearGradient><linearGradient id="g33" x2="1" href="#P" gradientTransform="matrix(219.119,0,0,126.471,2328.253,1114.305)"><stop stop-color="#dcb274"/><stop offset="1" stop-color="#ffdc96"/></linearGradient><linearGradient id="g34" x2="1" href="#P" gradientTransform="matrix(219.119,0,0,91.856,2328.253,1139.915)"><stop stop-color="#b58252"/><stop offset=".3" stop-color="#ddb277"/><stop offset=".48" stop-color="#bb8958"/><stop offset=".72" stop-color="#b27e4f"/><stop offset="1" stop-color="#b27e4f"/></linearGradient><linearGradient id="g35" x2="1" href="#P" gradientTransform="matrix(219.118,0,0,126.471,2328.253,1076.68)"><stop stop-color="#dcb274"/><stop offset="1" stop-color="#ffdc96"/></linearGradient><linearGradient id="g36" x2="1" href="#P" gradientTransform="matrix(219.118,0,0,91.856,2328.253,1102.29)"><stop stop-color="#b58252"/><stop offset=".3" stop-color="#ddb277"/><stop offset=".48" stop-color="#bb8958"/><stop offset=".72" stop-color="#b27e4f"/><stop offset="1" stop-color="#b27e4f"/></linearGradient><linearGradient id="g37" x2="1" href="#P" gradientTransform="matrix(219.118,0,0,126.471,2328.253,1039.054)"><stop stop-color="#dcb274"/><stop offset="1" stop-color="#ffdc96"/></linearGradient><linearGradient id="g38" x2="1" href="#P" gradientTransform="matrix(219.118,0,0,91.856,2328.253,1064.664)"><stop stop-color="#b58252"/><stop offset=".3" stop-color="#ddb277"/><stop offset=".48" stop-color="#bb8958"/><stop offset=".72" stop-color="#b27e4f"/><stop offset="1" stop-color="#b27e4f"/></linearGradient><linearGradient id="g39" x2="1" href="#P" gradientTransform="matrix(219.118,0,0,126.471,2328.253,1001.428)"><stop stop-color="#dcb274"/><stop offset="1" stop-color="#ffdc96"/></linearGradient><linearGradient id="g40" x2="1" href="#P" gradientTransform="matrix(219.119,0,0,91.856,2141.159,1322.035)"><stop stop-color="#b58252"/><stop offset=".3" stop-color="#ddb277"/><stop offset=".48" stop-color="#bb8958"/><stop offset=".72" stop-color="#b27e4f"/><stop offset="1" stop-color="#b27e4f"/></linearGradient><linearGradient id="g41" x2="1" href="#P" gradientTransform="matrix(219.119,0,0,126.471,2141.159,1258.8)"><stop stop-color="#dcb274"/><stop offset="1" stop-color="#ffdc96"/></linearGradient><linearGradient id="g42" x2="1" href="#P" gradientTransform="matrix(219.119,0,0,91.856,2141.159,1284.41)"><stop stop-color="#b58252"/><stop offset=".3" stop-color="#ddb277"/><stop offset=".48" stop-color="#bb8958"/><stop offset=".72" stop-color="#b27e4f"/><stop offset="1" stop-color="#b27e4f"/></linearGradient><linearGradient id="g43" x2="1" href="#P" gradientTransform="matrix(219.119,0,0,126.471,2141.159,1221.174)"><stop stop-color="#dcb274"/><stop offset="1" stop-color="#ffdc96"/></linearGradient><linearGradient id="g44" x2="1" href="#P" gradientTransform="matrix(219.119,0,0,91.856,2141.159,1246.784)"><stop stop-color="#b58252"/><stop offset=".3" stop-color="#ddb277"/><stop offset=".48" stop-color="#bb8958"/><stop offset=".72" stop-color="#b27e4f"/><stop offset="1" stop-color="#b27e4f"/></linearGradient><linearGradient id="g45" x2="1" href="#P" gradientTransform="matrix(219.119,0,0,126.471,2141.159,1183.549)"><stop stop-color="#dcb274"/><stop offset="1" stop-color="#ffdc96"/></linearGradient><linearGradient id="g46" x2="1" href="#P" gradientTransform="matrix(219.119,0,0,91.856,2141.159,1209.159)"><stop stop-color="#b58252"/><stop offset=".3" stop-color="#ddb277"/><stop offset=".48" stop-color="#bb8958"/><stop offset=".72" stop-color="#b27e4f"/><stop offset="1" stop-color="#b27e4f"/></linearGradient><linearGradient id="g47" x2="1" href="#P" gradientTransform="matrix(219.119,0,0,126.471,2141.159,1145.923)"><stop stop-color="#dcb274"/><stop offset="1" stop-color="#ffdc96"/></linearGradient><linearGradient id="g48" x2="1" href="#P" gradientTransform="matrix(113.847,0,0,209.372,1801.856,744.661)"><stop stop-color="#ffac06"/><stop offset="1" stop-color="#f25227"/></linearGradient><linearGradient id="g49" x2="1" href="#P" gradientTransform="matrix(167.602,0,0,270.852,1872.461,743.792)"><stop stop-color="#ffac06"/><stop offset="1" stop-color="#f25227"/></linearGradient><linearGradient id="g50" x2="1" href="#P" gradientTransform="matrix(121.669,0,0,198.817,1930.163,809.123)"><stop stop-color="#ffac06"/><stop offset="1" stop-color="#f25227"/></linearGradient><linearGradient id="g51" x2="1" href="#P" gradientTransform="matrix(97.189,8.454,-13.919,160.013,693.11,1207.295)"><stop stop-color="#ffd9d9"/><stop offset="1" stop-color="#efb4b4"/></linearGradient><linearGradient id="g52" x2="1" href="#P" gradientTransform="matrix(-92.191,0,0,-200.554,688.78,1353.718)"><stop stop-color="#ffac06"/><stop offset="1" stop-color="#f25227"/></linearGradient><linearGradient id="g53" x2="1" href="#P" gradientTransform="matrix(193.705,0,0,363.755,611.657,1338.264)"><stop stop-color="#86e2d0"/><stop offset="1" stop-color="#309e98"/></linearGradient><linearGradient id="g54" x2="1" href="#P" gradientTransform="matrix(-215.894,0,0,-173.336,954.672,1415.515)"><stop stop-color="#ffac06"/><stop offset="1" stop-color="#f25227"/></linearGradient><linearGradient id="g55" x2="1" href="#P" gradientTransform="matrix(85.148,0,0,52.053,951.811,1528.083)"><stop stop-color="#ffd9d9"/><stop offset="1" stop-color="#efb4b4"/></linearGradient></defs><style>.a{opacity:.3;fill:url(#g1)}.b{opacity:.3;fill:url(#g2)}.c{opacity:.3;fill:url(#g3)}.d{opacity:.3;fill:url(#g4)}.e{opacity:.3;fill:url(#g5)}.f{fill:#c9c9c9}.g{fill:#eaeaea}.h{fill:#aeafaf}.i{fill:#969696}.j{fill:#afb2b2}.k{fill:#fff}.l{fill:#247f78}.m{fill:#36a29c}.n{fill:#7fd3c5}.o{fill:#858c8c}.p{fill:#e5e5e5}.q{fill:#edefef}.r{fill:url(#g6);stroke:#d1541f;stroke-miterlimit:10}.s{fill:#c0c4c4}.t{fill:#cdd1d1}.u{fill:url(#g7);stroke:#d1541f;stroke-miterlimit:10}.v{fill:url(#g8);stroke:#d1541f;stroke-miterlimit:10}.w{fill:url(#g9);stroke:#d1541f;stroke-miterlimit:10}.x{fill:#5abaa8}.y{fill:#188178}.z{fill:url(#g10)}.A{fill:url(#g11)}.B{fill:#329e93}.C{fill:url(#g12)}.D{fill:url(#g13)}.E{fill:url(#g14)}.F{fill:url(#g15)}.G{fill:url(#g16)}.H{fill:#d9dbdb}.I{fill:url(#g17)}.J{fill:url(#g18)}.K{fill:url(#g19)}.L{fill:url(#g20)}.M{fill:#f35825}.N{fill:url(#g21)}.O{fill:url(#g22)}.P{fill:#2f655f}.Q{fill:url(#g23)}.R{fill:url(#g24)}.S{fill:#2d2f4f}.T{fill:url(#g25)}.U{fill:url(#g26)}.V{fill:url(#g27)}.W{fill:#fff6fb}.X{fill:#40c6c2}.Y{fill:#d0d5e2}.Z{fill:#f2f2f2}.a0{fill:url(#g28)}.a1{fill:url(#g29)}.a2{opacity:.3;fill:none;stroke:#050d19;stroke-miterlimit:10;stroke-width:3}.a3{fill:url(#g30)}.a4{fill:url(#g31)}.a5{fill:url(#g32)}.a6{fill:url(#g33)}.a7{fill:url(#g34)}.a8{fill:url(#g35)}.a9{fill:url(#g36)}.aa{fill:url(#g37)}.ab{fill:url(#g38)}.ac{fill:url(#g39)}.ad{fill:url(#g40)}.ae{fill:url(#g41)}.af{fill:url(#g42)}.ag{fill:url(#g43)}.ah{fill:url(#g44)}.ai{fill:url(#g45)}.aj{fill:url(#g46)}.ak{fill:url(#g47)}.al{fill:#45496d}.am{fill:url(#g48)}.an{fill:url(#g49)}.ao{fill:#ffbdbd}.ap{fill:#eaa2a2}.aq{fill:#dd9292}.ar{fill:none;stroke:#2d2f4f;stroke-linecap:round;stroke-linejoin:round;stroke-width:.8}.as{fill:#3b3e5e}.at{fill:#c6c6c6}.au{fill:#efefef}.av{fill:#b2b1b1}.aw{fill:#827f7f}.ax{fill:url(#g50)}.ay{fill:#606475}.az{opacity:.4;fill:#fff}.aA{fill:#707482}.aB{fill:#4a4d5a}.aC{fill:#20233a}.aD{fill:#444866}.aE{fill:url(#g51)}.aF{fill:url(#g52)}.aG{fill:url(#g53)}.aH{fill:url(#g54)}.aI{fill:url(#g55)}</style><path class="a" d="m1089.7 1636.6l941 571.3 637-420.8-732.9-439.7z"/><path class="b" d="m826.6 1849c0 0-17 30.9 19.9 54.1 36.9 23.2 488.2 311.1 512.5 292.2 24.2-19 242.5-85.5 203.5-157.2-39-71.7-420.7-314.2-420.7-314.2 0 0-144.5-13.7-208.8 7.4-64.4 21-106.4 117.7-106.4 117.7z"/><path class="c" d="m783.2 1985.4c0 0-151.8 15.8-140.2 52.7 11.6 36.9 230.9 190.9 314.2 190.9 83.3 0 80.2-83.3-5.3-146.6-85.4-63.3-168.7-97-168.7-97z"/><path class="d" d="m1804 1160.8l-36.9 31.6c0 0 632.7 381.7 670.7 384.9 37.9 3.2 442.9-266.8 442.9-266.8l-573.7-323.7z"/><path class="e" d="m379.8 1154.9c0 0-32.1 4.8-0.5 32.2 31.7 27.4 543.1 320.6 572.6 333.3 29.6 12.6 971.3-155.1 987.1-189.9 15.8-34.8-647.5-391.2-647.5-391.2z"/><path class="f" d="m977.9 1452.8v41.4c-18.8-0.2-37.6-5.2-54.5-15l-527.1-304c-23-13.3-36.4-73.7-13.4-87.1-8 15.4-3.5 36 13.4 45.7l527.1 304.1c16.9 9.7 35.7 14.7 54.5 14.9z"/><path class="g" d="m1567.6 1128.2l-532.2 309.5c-34.6 20.1-77.3 20.2-112 0.2l-527.1-304.1c-16.9-9.7-21.4-30.3-13.4-45.7 2.8-5.6 7.2-10.4 13.3-14l591.5-344 579.8 334.4c5.1 3 9.1 6.8 12 11.2 0 0 0.1 0 0.1 0.1 11.3 16.7 7.3 41.1-12 52.4z"/><path class="h" d="m1567.6 1169.5l-532.2 309.5c-17.8 10.4-37.6 15.4-57.5 15.2v-41.4c19.9 0.3 39.7-4.8 57.5-15.1l532.2-309.5c19.3-11.3 23.3-35.7 12-52.4 24.4 14.1 12.4 79.5-12 93.7z"/><path class="f" d="m978.5 1367.9v35.7c-16.3-0.2-32.5-4.5-47.1-12.9l-455.6-262.8c-19.8-11.4-31.4-63.7-11.6-75.2-6.9 13.3-3 31.1 11.6 39.5l455.6 262.8c14.6 8.4 30.8 12.7 47.1 12.9z"/><path class="g" d="m1488 1087.3l-459.9 267.5c-29.9 17.4-66.8 17.5-96.7 0.2l-455.6-262.8c-14.6-8.4-18.5-26.2-11.6-39.5 2.5-4.8 6.3-9 11.6-12.1l511.1-297.3 501.1 289c4.4 2.5 7.8 5.9 10.4 9.7 0 0 0 0 0 0 9.8 14.5 6.4 35.6-10.4 45.3z"/><path class="h" d="m1488 1123.1l-459.9 267.4c-15.3 9-32.5 13.3-49.6 13.1v-35.7c17.1 0.2 34.3-4.2 49.6-13.1l459.9-267.5c16.8-9.7 20.2-30.8 10.4-45.3 21.1 12.3 10.8 68.8-10.4 81.1z"/><path class="i" d="m877.1 1207l392.7-224.1v-180l-392.7 186.2z"/><path class="j" d="m1002.4 1086.7l-87 61.8-10.5-5.7v-138.5l97.5-56.1 10.4 5.7z"/><path class="k" d="m1012.8 1092.4l-97.4 56.1v-138.5l97.4-56.1z"/><path class="l" d="m925.8 1122.2v8.2l76.6-44.1v-114.4l-8.3 4.8v106.1z"/><path class="m" d="m925.8 1016v106.2l68.3-39.4v-106.1z"/><path class="n" d="m994.1 1082.8l8.3 3.5-76.6 44.1v-8.2z"/><path class="o" d="m904.9 1004.3l10.5 5.7v138.5l-10.5-5.7z"/><path class="j" d="m1244.5 961.8l-87.1 61.8-10.4-5.6v-138.5l97.5-56.2 10.4 5.7z"/><path class="k" d="m1254.9 967.5l-97.5 56.1v-138.5l97.5-56.1z"/><path class="l" d="m1167.9 997.3v8.2l76.6-44v-114.4l-8.3 4.7v106.1z"/><path class="m" d="m1167.9 891.2v106.1l68.3-39.4v-106.1z"/><path class="n" d="m1236.2 957.9l8.3 3.6-76.6 44v-8.2z"/><path class="o" d="m1147 879.5l10.4 5.6v138.5l-10.4-5.6z"/><path class="p" d="m563.2 1026.3l313.9 180.7v-217.9l-313.9-180.7z"/><path class="q" d="m1040.7 1266.8c0 11.8-18.6 21.3-41.6 21.3-23 0-41.6-9.5-41.6-21.3 0-11.8 18.6-21.4 41.6-21.4 23 0 41.6 9.6 41.6 21.4z"/><path class="h" d="m1040.7 1266.8v7.8c0 11.8-18.6 21.4-41.6 21.4-23 0-41.6-9.6-41.6-21.4v-7.8c0 11.8 18.6 21.3 41.6 21.3 23 0 41.6-9.5 41.6-21.3z"/><path class="q" d="m1030.3 1226.1c0 8.9-14 16-31.2 16-17.2 0-31.2-7.1-31.2-16 0-8.8 14-16 31.2-16 17.2 0 31.2 7.2 31.2 16z"/><path class="h" d="m1030.3 1226.1v36.5c0 8.9-14 16.1-31.2 16.1-17.2 0-31.2-7.2-31.2-16.1v-36.5c0 8.9 14 16 31.2 16 17.2 0 31.2-7.1 31.2-16z"/><path class="r" d="m1019.8 1058.9c0 5.9-9.3 10.7-20.7 10.7-11.4 0-20.6-4.8-20.6-10.7 0-5.8 9.2-10.6 20.6-10.6 11.4 0 20.7 4.8 20.7 10.6z"/><path class="s" d="m1019.8 1058.9v165.6c0 5.8-9.3 10.6-20.7 10.6-11.4 0-20.6-4.8-20.6-10.6v-165.6c0 5.9 9.2 10.7 20.6 10.7 11.4 0 20.7-4.8 20.7-10.7z"/><path class="t" d="m1030.3 1032.7c0 8.8-14 16-31.2 16-17.2 0-31.2-7.2-31.2-16 0-8.9 14-16.1 31.2-16.1 17.2 0 31.2 7.2 31.2 16.1z"/><path class="h" d="m1030.3 1032.7v36.5c0 8.8-14 16-31.2 16-17.2 0-31.2-7.2-31.2-16v-36.5c0 8.8 14 16 31.2 16 17.2 0 31.2-7.2 31.2-16z"/><path class="q" d="m1152 1201.8c0 11.8-18.7 21.4-41.6 21.4-23 0-41.7-9.6-41.7-21.4 0-11.8 18.7-21.4 41.7-21.4 22.9 0 41.6 9.6 41.6 21.4z"/><path class="h" d="m1152 1201.8v7.8c0 11.9-18.7 21.4-41.6 21.4-23 0-41.7-9.5-41.7-21.4v-7.8c0 11.8 18.7 21.4 41.7 21.4 22.9 0 41.6-9.6 41.6-21.4z"/><path class="q" d="m1141.6 1161.1c0 8.9-14 16-31.2 16-17.3 0-31.2-7.1-31.2-16 0-8.8 13.9-16 31.2-16 17.2 0 31.2 7.2 31.2 16z"/><path class="h" d="m1141.6 1161.1v36.6c0 8.8-14 16-31.2 16-17.3 0-31.2-7.2-31.2-16v-36.6c0 8.9 13.9 16 31.2 16 17.2 0 31.2-7.1 31.2-16z"/><path class="u" d="m1131 994c0 5.8-9.2 10.6-20.6 10.6-11.4 0-20.7-4.8-20.7-10.6 0-5.9 9.3-10.7 20.7-10.7 11.4 0 20.6 4.8 20.6 10.7z"/><path class="s" d="m1131 994v165.5c0 5.8-9.2 10.6-20.6 10.6-11.4 0-20.7-4.8-20.7-10.6v-165.5c0 5.8 9.3 10.6 20.7 10.6 11.4 0 20.6-4.8 20.6-10.6z"/><path class="t" d="m1141.6 967.7c0 8.8-14 16-31.2 16-17.3 0-31.2-7.2-31.2-16 0-8.9 13.9-16.1 31.2-16.1 17.2 0 31.2 7.2 31.2 16.1z"/><path class="h" d="m1141.6 967.7v36.5c0 8.9-14 16-31.2 16-17.3 0-31.2-7.1-31.2-16v-36.5c0 8.8 13.9 16 31.2 16 17.2 0 31.2-7.2 31.2-16z"/><path class="q" d="m1263.2 1136.8c0 11.8-18.6 21.4-41.6 21.4-23 0-41.6-9.6-41.6-21.4 0-11.8 18.6-21.4 41.6-21.4 23 0 41.6 9.6 41.6 21.4z"/><path class="h" d="m1263.2 1136.8v7.9c0 11.8-18.6 21.3-41.6 21.3-23 0-41.6-9.5-41.6-21.3v-7.9c0 11.8 18.6 21.4 41.6 21.4 23 0 41.6-9.6 41.6-21.4z"/><path class="q" d="m1252.8 1096.1c0 8.9-14 16.1-31.2 16.1-17.2 0-31.2-7.2-31.2-16.1 0-8.8 14-16 31.2-16 17.2 0 31.2 7.2 31.2 16z"/><path class="h" d="m1252.8 1096.1v36.6c0 8.8-14 16-31.2 16-17.2 0-31.2-7.2-31.2-16v-36.6c0 8.9 14 16.1 31.2 16.1 17.2 0 31.2-7.2 31.2-16.1z"/><path class="v" d="m1242.3 929c0 5.8-9.3 10.6-20.7 10.6-11.4 0-20.6-4.8-20.6-10.6 0-5.9 9.2-10.7 20.6-10.7 11.4 0 20.7 4.8 20.7 10.7z"/><path class="s" d="m1242.3 929v165.5c0 5.8-9.3 10.6-20.7 10.6-11.4 0-20.6-4.8-20.6-10.6v-165.5c0 5.8 9.2 10.6 20.6 10.6 11.4 0 20.7-4.8 20.7-10.6z"/><path class="t" d="m1252.8 902.7c0 8.8-14 16-31.2 16-17.2 0-31.2-7.2-31.2-16 0-8.9 14-16 31.2-16 17.2 0 31.2 7.1 31.2 16z"/><path class="h" d="m1252.8 902.7v36.5c0 8.9-14 16-31.2 16-17.2 0-31.2-7.1-31.2-16v-36.5c0 8.8 14 16 31.2 16 17.2 0 31.2-7.2 31.2-16z"/><path class="q" d="m1374.5 1071.8c0 11.8-18.7 21.4-41.7 21.4-22.9 0-41.6-9.6-41.6-21.4 0-11.8 18.7-21.4 41.6-21.4 23 0 41.7 9.6 41.7 21.4z"/><path class="h" d="m1374.5 1071.8v7.9c0 11.8-18.7 21.3-41.7 21.3-22.9 0-41.6-9.5-41.6-21.3v-7.9c0 11.8 18.7 21.4 41.6 21.4 23 0 41.7-9.6 41.7-21.4z"/><path class="q" d="m1364 1031.1c0 8.9-13.9 16.1-31.2 16.1-17.2 0-31.1-7.2-31.1-16.1 0-8.8 13.9-16 31.1-16 17.3 0 31.2 7.2 31.2 16z"/><path class="h" d="m1364 1031.1v36.6c0 8.8-13.9 16-31.2 16-17.2 0-31.1-7.2-31.1-16v-36.6c0 8.9 13.9 16.1 31.1 16.1 17.3 0 31.2-7.2 31.2-16.1z"/><path class="w" d="m1353.5 864c0 5.8-9.3 10.6-20.7 10.6-11.4 0-20.6-4.8-20.6-10.6 0-5.9 9.2-10.6 20.6-10.6 11.4 0 20.7 4.7 20.7 10.6z"/><path class="s" d="m1353.5 864v165.5c0 5.8-9.3 10.6-20.7 10.6-11.4 0-20.6-4.8-20.6-10.6v-165.5c0 5.8 9.2 10.6 20.6 10.6 11.4 0 20.7-4.8 20.7-10.6z"/><path class="t" d="m1364 837.7c0 8.8-13.9 16-31.2 16-17.2 0-31.1-7.2-31.1-16 0-8.9 13.9-16 31.1-16 17.3 0 31.2 7.1 31.2 16z"/><path class="h" d="m1364 837.7v36.5c0 8.9-13.9 16-31.2 16-17.2 0-31.1-7.1-31.1-16v-36.5c0 8.8 13.9 16 31.1 16 17.3 0 31.2-7.2 31.2-16z"/><path class="x" d="m1226.2 722.7l221.5 39.8-455.4-261.1-221.5-39.8z"/><path class="y" d="m545.6 805.2l453.5 261.1v-43.2l-453.5-261.1z"/><path class="y" d="m1447.7 762.5l-221.5-39.8-227.1 300.4v43.2l448.6-265z"/><path class="n" d="m1426.8 780v9.4l-406.2 239.9 29.6-39.1 348.7-206v-9.2z"/><path class="m" d="m1398.9 775v9.2l-348.7 206 184.9-244.7z"/><path class="z" d="m999.1 1023.1l227.1-300.4-453.5-261.1-227.1 300.4z"/><path class="A" d="m1221.7 720.1l-224.4 296.9-449.1-258.5-2.6 3.5 453.5 261.1 227.1-300.4z"/><path class="j" d="m661.7 1029.6l87 61.7 10.5-5.6v-138.5l-97.5-56.1-10.5 5.6z"/><path class="k" d="m651.2 1035.2l97.5 56.1v-138.5l-97.5-56.1z"/><path class="l" d="m738.3 1065v8.3l-76.6-44.1v-114.4l8.2 4.7v106.2z"/><path class="m" d="m738.3 958.9v106.1l-68.4-39.3v-106.2z"/><path class="n" d="m669.9 1025.7l-8.2 3.5 76.6 44.1v-8.3z"/><path class="o" d="m759.2 947.2l-10.5 5.6v138.5l10.5-5.6z"/><path class="B" d="m1817.9 299.8l-240.8 141.2c-16.8 9.8-27.1 27.9-27.1 47.4v273.3c0 30.4 48.8 54.8 65.6 45l214.1-165.2c17.1-10 27.6-28.3 27.6-48.1l32.3-265.7c-0.1-20.2-47-42-71.7-27.9z"/><path class="C" d="m1854.7 319.9l-240.8 141.2c-16.9 9.9-27.2 27.9-27.2 47.4v273.4c0 19.4 21.1 31.4 37.8 21.6l242-141.8c17.1-10.1 27.6-28.4 27.6-48.2v-271c0-20.2-22-32.8-39.4-22.6z"/><path class="k" d="m1646 557.5c0 0 30.1 26.1 50.4 52.3 20.3 26.2 32 67.7 32 67.7 0 0 33-68.6 52.4-105.2 23.8-44.8 54.5-64.7 54.5-64.7l-26.7-63.4c0 0-25.2 26.1-40.8 61-20.7 46.3-34 85.7-34 85.7 0 0-6.7-20.7-27.7-53.5-15.6-24.3-38.7-37.3-38.7-37.3z"/><path class="D" d="m1593.9 785.4v-273.3c0-19.5 10.3-37.6 27.1-47.4l240.9-141.2c6.9-4.1 14.5-4.5 21.1-2.3-7.9-5.6-18.8-6.9-28.3-1.3l-240.8 141.2c-16.9 9.9-27.2 27.9-27.2 47.4v273.4c0 11.7 7.8 20.8 17.6 23.9-6.2-4.4-10.4-11.7-10.4-20.4z"/><path class="E" d="m1102.6 1650.2l371.5 215.9c25 14.5 55.7 14.6 80.7 0.2l573.2-328c22.3-12.9 22.3-45 0.1-57.9l-373.4-216.9c-23.3-13.6-52.2-13.7-75.6-0.2l-576.4 329.9c-22 12.6-22 44.3-0.1 57z"/><path class="F" d="m1102.6 1628.7l371.5 215.8c25 14.5 55.7 14.6 80.7 0.2l573.2-328c22.3-12.8 22.3-44.9 0.1-57.9l-373.4-216.9c-23.3-13.6-52.2-13.7-75.6-0.2l-576.4 329.9c-22 12.6-22 44.3-0.1 57.1z"/><path class="k" d="m1521.4 1820c-10.7 0-21.2-2.9-30.5-8.3l-346.5-201.3c-7.3-4.3-8.1-11.3-8.1-14.1 0-2.8 0.8-9.8 8.1-14l537.7-307.7c8.5-4.9 18.1-7.5 27.9-7.5 9.8 0 19.5 2.6 28.1 7.6l348.3 202.4c7.5 4.3 8.3 11.5 8.3 14.4-0.1 2.9-0.9 10.1-8.4 14.4l-534.6 306c-9.2 5.3-19.7 8.1-30.3 8.1q0 0 0 0z"/><path class="G" d="m1580.3 1437.4l-43.8-26.3c-4.5-2.7-4.4-6.9 0.1-9.4l44.3-24.9c4.5-2.5 11.7-2.4 16.2 0.3l43.8 26.3c4.4 2.7 4.4 6.9-0.1 9.4l-44.3 24.9c-4.5 2.5-11.8 2.4-16.2-0.3z"/><path class="H" d="m1888.5 1562.7l-226.4-136c-2.4-1.5-2.4-3.8 0.1-5.2 2.5-1.4 6.5-1.4 8.9 0.1l226.4 136c2.4 1.5 2.4 3.8-0.1 5.2-2.5 1.4-6.5 1.3-8.9-0.1z"/><path class="H" d="m1861.5 1577.8l-226.3-136c-2.4-1.5-2.4-3.8 0.1-5.2 2.4-1.4 6.4-1.3 8.9 0.1l226.3 136c2.5 1.5 2.4 3.8 0 5.2-2.5 1.4-6.5 1.3-9-0.1z"/><path class="H" d="m1734.7 1532.9l-126.4-76c-2.5-1.5-2.5-3.8 0-5.2 2.5-1.4 6.5-1.3 8.9 0.1l126.5 76c2.5 1.5 2.4 3.8 0 5.2-2.5 1.4-6.5 1.3-9-0.1z"/><path class="k" d="m1568.7 1391.7c0 0 4 7.1 3.9 14.1-0.1 7-4.1 11.6-4.1 11.6 0 0 14.3-3.4 27.3-4 12.3-0.5 24.6 1.5 24.6 1.5l1.3-11.8c0 0-8.3-0.2-19.5 1.2-10.3 1.3-17.2 3.1-17.2 3.1 0 0 1-4.3 1-9.2 0.1-5-0.9-5.9-0.9-5.9z"/><path class="I" d="m1485.2 1490.7l-43.8-26.3c-4.4-2.7-4.4-6.9 0.1-9.4l44.3-24.9c4.5-2.5 11.8-2.4 16.2 0.3l43.9 26.3c4.4 2.7 4.4 6.9-0.1 9.4l-44.4 24.9c-4.5 2.5-11.7 2.4-16.2-0.3z"/><path class="H" d="m1793.5 1616l-226.4-136c-2.4-1.5-2.4-3.8 0.1-5.2 2.4-1.4 6.5-1.4 8.9 0.1l226.3 136c2.5 1.5 2.4 3.8 0 5.2-2.5 1.4-6.5 1.3-8.9-0.1z"/><path class="H" d="m1766.5 1631.1l-226.3-136c-2.5-1.5-2.4-3.8 0-5.2 2.5-1.4 6.5-1.3 9 0.1l226.3 136c2.4 1.5 2.4 3.8-0.1 5.2-2.4 1.4-6.4 1.3-8.9-0.1z"/><path class="H" d="m1639.7 1586.2l-126.5-76c-2.4-1.5-2.4-3.8 0.1-5.2 2.5-1.4 6.5-1.3 8.9 0.1l126.5 76c2.4 1.5 2.4 3.8-0.1 5.2-2.4 1.4-6.4 1.3-8.9-0.1z"/><path class="k" d="m1473.7 1445c0 0 4 7.1 3.9 14.1-0.1 7-4.1 11.6-4.1 11.6 0 0 14.2-3.4 27.3-4 12.3-0.5 24.6 1.5 24.6 1.5l1.3-11.8c0 0-8.3-0.2-19.5 1.2-10.3 1.3-17.2 3.1-17.2 3.1 0 0 1-4.3 1-9.2 0.1-5-1-5.9-1-5.9z"/><path class="J" d="m1390.2 1544l-43.8-26.3c-4.4-2.7-4.4-6.9 0.1-9.4l44.3-24.9c4.5-2.5 11.8-2.4 16.2 0.3l43.8 26.3c4.5 2.7 4.4 6.9-0.1 9.4l-44.3 24.9c-4.5 2.5-11.7 2.4-16.2-0.3z"/><path class="H" d="m1698.4 1669.2l-226.3-136c-2.5-1.4-2.4-3.8 0-5.1 2.5-1.4 6.5-1.4 9 0.1l226.3 136c2.4 1.5 2.4 3.8-0.1 5.2-2.4 1.4-6.4 1.3-8.9-0.2z"/><path class="H" d="m1671.5 1684.4l-226.4-136c-2.4-1.5-2.4-3.8 0.1-5.2 2.5-1.4 6.5-1.3 8.9 0.1l226.4 136c2.4 1.5 2.4 3.8-0.1 5.2-2.5 1.4-6.5 1.3-8.9-0.1z"/><path class="H" d="m1544.7 1639.5l-126.5-76c-2.4-1.5-2.4-3.8 0.1-5.2 2.4-1.4 6.4-1.3 8.9 0.1l126.5 76c2.4 1.5 2.4 3.8-0.1 5.2-2.4 1.4-6.5 1.3-8.9-0.1z"/><path class="k" d="m1378.7 1498.3c0 0 3.9 7.1 3.9 14.1-0.1 7-4.2 11.6-4.2 11.6 0 0 14.3-3.4 27.4-4 12.3-0.5 24.6 1.5 24.6 1.5l1.3-11.8c0 0-8.3-0.2-19.5 1.2-10.3 1.3-17.2 3.1-17.2 3.1 0 0 0.9-4.3 1-9.2 0-5-1-5.9-1-5.9z"/><path class="K" d="m1295.2 1597.3l-43.8-26.3c-4.5-2.7-4.4-6.9 0.1-9.4l44.3-24.9c4.5-2.5 11.7-2.4 16.2 0.3l43.8 26.3c4.4 2.7 4.4 6.9-0.1 9.4l-44.3 24.9c-4.5 2.5-11.8 2.4-16.2-0.3z"/><path class="H" d="m1603.4 1722.5l-226.3-136c-2.5-1.4-2.5-3.8 0-5.1 2.5-1.4 6.5-1.4 8.9 0.1l226.4 136c2.4 1.5 2.4 3.8-0.1 5.2-2.4 1.4-6.5 1.3-8.9-0.2z"/><path class="H" d="m1576.5 1737.7l-226.4-136c-2.4-1.5-2.4-3.8 0.1-5.2 2.4-1.4 6.5-1.3 8.9 0.1l226.3 136c2.5 1.5 2.5 3.8 0 5.2-2.5 1.4-6.5 1.3-8.9-0.1z"/><path class="H" d="m1449.7 1692.8l-126.5-76c-2.5-1.5-2.4-3.8 0-5.2 2.5-1.4 6.5-1.3 9 0.1l126.4 76c2.5 1.5 2.5 3.8 0 5.2-2.5 1.4-6.5 1.3-8.9-0.1z"/><path class="k" d="m1283.7 1551.6c0 0 3.9 7.1 3.8 14.1 0 7-4.1 11.6-4.1 11.6 0 0 14.3-3.4 27.3-4 12.4-0.5 24.6 1.5 24.6 1.5l1.4-11.8c0 0-8.3-0.2-19.6 1.2-10.3 1.3-17.2 3.1-17.2 3.1 0 0 1-4.3 1-9.2 0.1-5-0.9-5.9-0.9-5.9z"/><path class="L" d="m1841.1 1459.5l-129.3-75.2c-4-2.3-3.2-6.2 1.7-8.7 5-2.5 12.4-2.7 16.4-0.3l129.3 75.1c4 2.3 3.2 6.3-1.8 8.8-5 2.5-12.3 2.6-16.3 0.3z"/><path fill-rule="evenodd" class="M" d="m2019.3 1397l-19.4 11.2c-15.7 9.1-39.4 10.5-52.9 3.2l-119.3-64.6c-13.5-7.3-11.7-20.6 4-29.6l19.4-11.3c7.6-4.4 19.1-5.1 25.6-1.5l43.2 23.4q1.4-1 3-1.9c18.8-10.8 47-12.5 63.1-3.8 16.1 8.7 14 24.6-4.7 35.4q-1.6 0.9-3.3 1.7l43.2 23.4c6.5 3.6 5.7 10-1.9 14.4zm-51.8-49.1c8.7-5 9.7-12.4 2.2-16.4-7.4-4.1-20.5-3.3-29.2 1.8-8.7 5-9.7 12.3-2.2 16.4 7.4 4 20.5 3.2 29.2-1.8z"/><path fill-rule="evenodd" class="N" d="m2016.9 1390.8l-19.4 11.2c-15.7 9.1-39.4 10.6-52.9 3.2l-119.3-64.5c-13.5-7.4-11.7-20.6 4-29.7l19.4-11.2c7.6-4.4 19.1-5.1 25.6-1.6l43.2 23.4q1.4-1 3-1.9c18.8-10.8 47-12.5 63.1-3.8 16.1 8.7 14 24.6-4.7 35.4q-1.6 0.9-3.3 1.8l43.2 23.3c6.5 3.6 5.7 10-1.9 14.4zm-51.8-49.1c8.7-5 9.7-12.3 2.2-16.4-7.4-4-20.5-3.2-29.2 1.8-8.7 5-9.7 12.4-2.2 16.4 7.4 4.1 20.5 3.3 29.2-1.8z"/><path class="O" d="m2176.7 1689.5v0.1q0 1.1-0.1 2.1c0 0.7 0 1.4-0.1 2q0 0.3-0.1 0.5 0 0.2 0 0.4 0 0.6-0.1 1.2-0.1 1-0.3 2-0.1 0.4-0.2 0.8c0 0.2-0.1 0.4-0.1 0.5q-0.1 0.4-0.1 0.8-0.3 1.2-0.6 2.2c-0.1 0.2-0.1 0.4-0.2 0.6q-0.1 0.3-0.2 0.6c-0.1 0.4-0.2 0.8-0.4 1.1q-0.4 1-0.8 2-0.1 0.2-0.1 0.3-0.1 0.1-0.1 0.1-0.4 0.8-0.8 1.6 0 0 0 0-0.4 0.7-0.8 1.4-0.1 0-0.1 0.1-0.1 0.2-0.2 0.3-0.8 1.2-1.7 2.2c-0.2 0.3-0.4 0.5-0.7 0.8q-0.8 0.8-1.6 1.5-0.3 0.3-0.7 0.6-1.2 1-2.4 1.8l-426.5 247.8q0.1-0.1 0.1-0.1 0.6-0.3 1-0.7c0.1 0 0.2-0.1 0.2-0.1 0.3-0.2 0.6-0.5 0.9-0.7q0.3-0.3 0.7-0.6 0.4-0.3 0.8-0.7 0.4-0.4 0.8-0.8 0.4-0.4 0.8-0.9 0.3-0.4 0.7-0.9 0.4-0.5 0.7-1c0.1-0.2 0.2-0.3 0.4-0.5q0.7-1.1 1.3-2.3 0.7-1.4 1.3-2.9c0.1-0.5 0.3-0.9 0.4-1.4q0.1-0.1 0.1-0.1 0.1-0.2 0.2-0.5 0-0.2 0-0.3 0.6-1.9 1-4 0.2-0.9 0.3-1.7 0.1-1 0.2-2 0.1-0.1 0.1-0.2 0-0.2 0-0.3 0-0.6 0.1-1.2 0.1-1.7 0.1-3.5c0-3.4-0.3-6.9-0.8-10.4v-0.1q0-0.1 0-0.1-0.9-5.2-2.4-10.4-0.1-0.1-0.1-0.3-0.2-0.7-0.5-1.4-0.2-0.6-0.4-1.1c-0.3-0.9-0.5-1.8-0.8-2.6-1.5-3.8-3.1-7.6-5-11.3-0.7-1.2-1.3-2.4-2-3.7q-0.3-0.5-0.7-1.1-1.5-2.6-3.1-5.1c-3.2-4.9-6.8-9.4-10.7-13.5q-0.8-0.8-1.6-1.6c-0.7-0.7-1.4-1.4-2.2-2.1q-1.8-1.7-3.6-3.2-4.3-3.6-8.9-6.2-1-0.5-1.9-1-1.4-0.8-2.8-1.4-0.4-0.2-0.9-0.4-0.5-0.2-1-0.4 0 0 0 0-0.4-0.2-0.9-0.4c-0.1 0-0.1 0-0.2 0q-0.4-0.2-0.9-0.4c-0.2 0-0.4-0.1-0.6-0.1q-0.7-0.3-1.4-0.5-0.4-0.1-0.6-0.2-0.6-0.1-1.2-0.3h-0.1q-0.3 0-0.7-0.1c-0.4-0.1-0.7-0.2-1.1-0.2q-0.2-0.1-0.5-0.1-0.1-0.1-0.4-0.1c-0.3 0-0.6-0.1-1-0.1q-0.4-0.1-0.7-0.1-0.2 0-0.3 0-0.4 0-0.8 0-0.6-0.1-1.1-0.1-1.5 0-2.8 0.2-1 0.1-2 0.3-0.1 0-0.2 0c-0.1 0-0.2 0-0.3 0q-1.1 0.3-2.2 0.7-0.1 0-0.3 0c-0.1 0.1-0.3 0.1-0.4 0.2q-0.2 0.1-0.5 0.2-0.6 0.2-1.2 0.5-0.5 0.2-1 0.5-0.3 0.1-0.6 0.3l426.8-248q0.7-0.4 1.6-0.8 0.2-0.2 0.5-0.2l1.2-0.5c0 0 0.1-0.1 0.1-0.1q0.2 0 0.3-0.1c0.9-0.3 1.8-0.5 2.7-0.7q0 0 0 0c0.1 0 0.2 0 0.2 0q1-0.2 2-0.3c0.1 0 0.2-0.1 0.3-0.1q0.2 0 0.4 0 0.7 0 1.4-0.1 0.2 0 0.5 0h0.2c0.4 0 0.8 0 1.2 0q0.2 0.1 0.6 0.1 0.1 0 0.2 0 0.5 0 1 0.1 0.3 0 0.7 0.1 0.1 0 0.3 0 0.4 0.1 0.8 0.2 0.4 0 0.7 0.1 0.3 0 0.5 0.1 0.3 0 0.7 0.1 0.3 0.1 0.6 0.2 0.3 0 0.6 0.1c0.3 0.1 0.5 0.2 0.8 0.2q0.2 0.1 0.4 0.2 0.4 0.1 0.9 0.2c0.2 0.1 0.4 0.2 0.6 0.3 0.1 0 0.1 0 0.2 0q0.9 0.3 1.8 0.7 0.8 0.3 1.7 0.7c0 0 0.1 0.1 0.2 0.1 0.2 0.1 0.4 0.2 0.6 0.3q0.5 0.2 0.9 0.4 0.3 0.2 0.6 0.3 0.3 0.2 0.7 0.4 0.2 0.1 0.5 0.2 0.7 0.4 1.3 0.8 0.2 0.1 0.5 0.2 0.9 0.6 1.8 1.2 0.9 0.5 1.8 1.2 0.1 0.1 0.3 0.1 0.1 0.1 0.2 0.2 0.7 0.5 1.4 1 0.9 0.7 1.9 1.4 0.3 0.3 0.6 0.6 0.2 0.1 0.4 0.3 0.5 0.4 0.9 0.7 1 0.8 1.9 1.7 0.4 0.4 0.9 0.8c0.1 0.1 0.3 0.3 0.4 0.4q0.3 0.3 0.6 0.5 0.9 0.9 1.8 1.8 0.6 0.6 1.2 1.2 0.1 0.2 0.3 0.4c0 0.1 0.2 0.2 0.2 0.3q0.9 0.9 1.7 1.8 0.9 1 1.7 2 0 0 0 0 0 0 0 0 0.8 1 1.6 2 1 1.2 1.9 2.5 1.4 1.9 2.8 3.9 0.1 0.2 0.2 0.4c0.7 0.9 1.2 1.9 1.8 2.8 0.4 0.6 0.8 1.2 1.1 1.9 0.2 0.1 0.2 0.3 0.3 0.4q0.3 0.6 0.6 1.1c0.4 0.8 0.9 1.5 1.3 2.3q0.5 0.8 0.9 1.7 0.1 0.3 0.2 0.5 0.1 0.2 0.2 0.3 0.6 1.1 1.1 2.3 0.5 1 0.9 2.1c0.1 0.1 0.1 0.1 0.2 0.3q0 0.1 0.1 0.2 0.3 0.8 0.6 1.5 0.5 1.1 0.9 2.1 0.2 0.7 0.5 1.4 0 0.1 0.1 0.3 0.1 0.2 0.2 0.4 0.4 1.1 0.7 2.2 0.4 1.1 0.7 2.2 0.1 0.2 0.1 0.3 0.1 0.2 0.1 0.3c0.2 0.6 0.4 1.1 0.5 1.7q0.3 1.1 0.6 2.3 0.1 0.5 0.2 0.9 0.1 0.3 0.1 0.5c0.1 0.3 0.2 0.5 0.2 0.8q0.3 1.1 0.5 2.2 0.2 1.1 0.3 2.1 0 0 0 0 0 0.1 0.1 0.1 0.1 1.1 0.3 2.2 0.1 1 0.2 2.1 0 0.4 0 0.7 0.1 0.2 0.1 0.4 0 0.5 0.1 1 0 1 0.1 2 0 1.1 0 2z"/><path class="P" d="m1707.1 1863.3c23.7 13.7 42.9 46.9 42.8 74.2 0 27.3-19.4 38.3-43.1 24.6-23.7-13.7-42.9-47-42.8-74.2 0.1-27.3 19.4-38.3 43.1-24.6z"/><path class="Q" d="m2149.2 1627.4l-332.2 188.8 23 32.8 329.2-191.7c0 0-2.7-30.1-20-29.9z"/><path class="R" d="m2176.7 1689.6v-0.1q0-0.9 0-2-0.1-1-0.1-2-0.1-0.5-0.1-1 0-0.2-0.1-0.4 0-0.3 0-0.7-0.1-1.1-0.2-2.1-0.2-1.1-0.3-2.2-0.1 0-0.1-0.1 0 0 0 0-0.1-1-0.3-2.1-0.2-1.1-0.5-2.2c0-0.3-0.1-0.5-0.2-0.8q0-0.2-0.1-0.5-0.1-0.4-0.2-0.9-0.3-1.2-0.6-2.3c-0.1-0.6-0.3-1.1-0.5-1.7q0-0.1-0.1-0.3 0-0.1-0.1-0.3-0.3-1.1-0.7-2.2-0.3-1.1-0.7-2.2-0.1-0.2-0.2-0.4-0.1-0.2-0.1-0.3-0.3-0.7-0.5-1.4-0.4-1-0.9-2.1-0.3-0.7-0.6-1.5-0.1-0.1-0.1-0.2c-0.1-0.2-0.1-0.2-0.2-0.3q-0.4-1.1-0.9-2.1-0.5-1.2-1.1-2.3-0.1-0.1-0.2-0.3-0.1-0.2-0.2-0.5-0.4-0.9-0.9-1.7c-0.4-0.8-0.9-1.5-1.3-2.3q-0.3-0.5-0.6-1.1c-0.1-0.1-0.1-0.3-0.3-0.4-0.3-0.7-0.7-1.3-1.1-1.9-0.6-0.9-1.1-1.9-1.8-2.8q-0.1-0.2-0.2-0.4-1.4-2-2.8-3.9-0.9-1.3-1.9-2.5-0.8-1-1.6-2 0 0 0 0 0 0 0 0-0.8-1-1.7-2-0.8-0.9-1.7-1.8c0-0.1-0.2-0.2-0.2-0.3q-0.2-0.2-0.3-0.4-0.6-0.6-1.2-1.2-0.9-0.9-1.8-1.8-0.3-0.2-0.6-0.5c-0.1-0.1-0.3-0.3-0.4-0.4q-0.5-0.4-0.9-0.8-0.9-0.9-1.9-1.7-0.4-0.3-0.9-0.7-0.2-0.2-0.4-0.3-0.3-0.3-0.6-0.6-1-0.7-1.9-1.4-0.7-0.5-1.4-1-0.1-0.1-0.2-0.2-0.2 0-0.3-0.1-0.9-0.7-1.8-1.2-0.9-0.6-1.8-1.2-0.3-0.1-0.5-0.2-0.6-0.4-1.3-0.8-0.3-0.1-0.5-0.2-0.4-0.2-0.7-0.4-0.3-0.1-0.6-0.3-0.4-0.2-0.9-0.4c-0.2-0.1-0.4-0.2-0.6-0.3-0.1 0-0.2-0.1-0.2-0.1q-0.9-0.4-1.7-0.7-0.9-0.4-1.8-0.7c-0.1 0-0.1 0-0.2 0-0.2-0.1-0.4-0.2-0.6-0.3q-0.5-0.1-0.9-0.2-0.2-0.1-0.4-0.2c-0.3 0-0.5-0.1-0.8-0.2q-0.3-0.1-0.6-0.1-0.3-0.1-0.6-0.2-0.4-0.1-0.7-0.1-0.2-0.1-0.5-0.1-0.3-0.1-0.7-0.1-0.4-0.1-0.8-0.2-0.2 0-0.3 0-0.4-0.1-0.7-0.1-0.5-0.1-1-0.1-0.1 0-0.2 0-0.4 0-0.6-0.1c-0.4 0-0.8 0-1.2 0h-0.2q-0.3 0-0.5 0-0.7 0.1-1.4 0.1-0.2 0-0.4 0c-0.1 0-0.2 0.1-0.3 0.1l160-25-99.5 123.8q0.4-0.8 0.8-1.6 0 0 0.1-0.1 0-0.1 0.1-0.3 0.4-1 0.8-2c0.2-0.3 0.3-0.7 0.4-1.1q0.1-0.3 0.2-0.6c0.1-0.2 0.1-0.4 0.2-0.6q0.3-1 0.6-2.2 0-0.4 0.1-0.8c0-0.1 0.1-0.3 0.1-0.5q0.1-0.4 0.2-0.8 0.2-1 0.3-2 0.1-0.6 0.1-1.2 0-0.2 0-0.4 0.1-0.2 0.1-0.5c0.1-0.6 0.1-1.3 0.1-2q0.1-1 0.1-2.1z"/><path class="S" d="m2221.1 1592.6c0 0 9.6 0.9 15.1 8.5 5.4 7.6 4.5 22.4 4.5 22.4l31.2-38.9z"/><path class="T" d="m1847.5 1879.5q0-1-0.1-2.1 0-0.5-0.1-1 0-0.2 0-0.4 0-0.3-0.1-0.7-0.1-1.1-0.2-2.1-0.1-1.1-0.3-2.2 0 0 0-0.1 0 0 0 0-0.2-1.1-0.4-2.1-0.2-1.1-0.4-2.2-0.1-0.4-0.2-0.8-0.1-0.3-0.1-0.5-0.1-0.5-0.3-1-0.3-1.2-0.6-2.3-0.2-0.8-0.5-1.7 0-0.1-0.1-0.3 0-0.1 0-0.3-0.4-1.1-0.8-2.2-0.3-1.1-0.7-2.2-0.1-0.2-0.2-0.4 0-0.2-0.1-0.4-0.3-0.7-0.5-1.3-0.4-1.1-0.9-2.2-0.3-0.7-0.6-1.5-0.1-0.1-0.1-0.2-0.1-0.2-0.2-0.3-0.4-1.1-0.9-2.1-0.5-1.1-1.1-2.3-0.1-0.2-0.2-0.3-0.1-0.3-0.2-0.5-0.5-0.9-0.9-1.8-0.7-1.1-1.3-2.2-0.3-0.6-0.6-1.1-0.2-0.3-0.3-0.5c-0.4-0.6-0.8-1.2-1.2-1.9q-0.8-1.4-1.7-2.8-0.2-0.2-0.3-0.4-1.3-2-2.7-3.9-1-1.3-2-2.5-0.8-1-1.6-2 0 0 0-0.1 0 0 0 0-0.9-1-1.7-1.9-0.8-1-1.7-1.9-0.1-0.2-0.3-0.3-0.1-0.2-0.3-0.3-0.6-0.7-1.2-1.3-0.9-0.9-1.8-1.8-0.3-0.2-0.6-0.5-0.2-0.2-0.4-0.4-0.4-0.4-0.9-0.8-0.9-0.9-1.9-1.7-0.4-0.4-0.9-0.7-0.2-0.2-0.4-0.4-0.3-0.2-0.6-0.5-1-0.7-1.9-1.4-0.7-0.5-1.4-1-0.2-0.1-0.3-0.2-0.1-0.1-0.2-0.2-0.9-0.6-1.9-1.2-0.9-0.6-1.8-1.1-0.2-0.1-0.4-0.3-0.7-0.4-1.4-0.7-0.2-0.2-0.5-0.3-0.4-0.2-0.7-0.4-0.3-0.1-0.6-0.3-0.4-0.2-0.8-0.4-0.3-0.1-0.7-0.3-0.1 0-0.2-0.1-0.9-0.4-1.7-0.7 0 0 0 0-0.9-0.4-1.8-0.7-0.1 0-0.2 0-0.3-0.2-0.6-0.3-0.5-0.1-0.9-0.2-0.2-0.1-0.5-0.2-0.3-0.1-0.7-0.2-0.3-0.1-0.6-0.1-0.3-0.1-0.6-0.2-0.4-0.1-0.8-0.1-0.2-0.1-0.4-0.1-0.3-0.1-0.7-0.1-0.4-0.1-0.9-0.2-0.1 0-0.3 0-0.3-0.1-0.7-0.1-0.5-0.1-0.9-0.1-0.2 0-0.3 0-0.3-0.1-0.6-0.1-0.6 0-1.1 0-0.2 0-0.3 0-0.3 0-0.5 0-0.7 0-1.4 0.1-0.2 0-0.4 0-0.1 0-0.3 0-1 0.1-2 0.3-0.1 0-0.2 0.1 0 0 0 0-1.4 0.3-2.8 0.7-0.1 0.1-0.2 0.1-0.1 0-0.2 0.1-0.6 0.2-1.1 0.4-0.3 0.1-0.6 0.3-0.8 0.4-1.6 0.8l-100.6 59q0.8-0.4 1.6-0.8 0.3-0.1 0.5-0.2 0.6-0.3 1.2-0.5 0.2-0.1 0.4-0.2 1.4-0.4 2.8-0.7 0.1 0 0.2 0 1-0.2 2-0.3 0.3-0.1 0.7-0.1 0.7-0.1 1.4-0.1 0.4 0 0.7 0 0.6 0 1.1 0.1 0.5 0 0.9 0 0.5 0 1 0.1 0.5 0.1 1 0.1 0.4 0.1 0.9 0.2 0.5 0.1 1.1 0.2 0.4 0.1 0.7 0.1 0.6 0.2 1.3 0.3 0.3 0.1 0.7 0.3 0.7 0.1 1.3 0.4 0.3 0.1 0.7 0.2 0.9 0.3 1.9 0.7 0 0 0 0 1 0.4 2 0.9 0.3 0.1 0.6 0.2 0.7 0.4 1.5 0.7 0.3 0.2 0.7 0.4 0.9 0.5 1.9 1 2.2 1.3 4.3 2.8 0.1 0.1 0.3 0.2 1.9 1.4 3.9 2.9 0.2 0.2 0.4 0.4 1.9 1.5 3.7 3.2 0.2 0.2 0.4 0.4 1.9 1.7 3.6 3.6 0.2 0.1 0.3 0.3 1.9 2 3.7 4.1 0 0.1 0 0.1 3.5 4.2 6.6 8.9 0.9 1.3 1.7 2.7 0.7 1.2 1.4 2.4 0.4 0.5 0.7 1.1 1.1 2 2.2 4 0.1 0.3 0.2 0.5 1.2 2.5 2.3 5 0.1 0.1 0.2 0.2 1 2.5 2 5 0 0.2 0.1 0.4 0.9 2.5 1.7 5.1 0.1 0.2 0.1 0.3 0.8 2.5 1.3 5 0.1 0.2 0.1 0.5 0.6 2.5 1 5.1 0.1 0 0.1 0.1 0.4 2.5 0.6 5 0 0.3 0 0.5 0.2 2.5 0.2 5 0 2.4-0.2 4.7 0 0.2-0.1 0.4-0.2 2.1-0.6 4.1 0 0.2-0.1 0.5-0.3 1.8-0.9 3.6-0.1 0.3-0.2 0.6-0.5 1.6-1.2 3.1-0.1 0.2-0.1 0.3-0.8 1.7-1.8 3.2-0.1 0.2-0.2 0.4-0.8 1.1-1.7 2.2-0.4 0.3-0.7 0.7-0.8 0.8-1.6 1.6-0.4 0.3-0.7 0.6-1.2 0.9-2.5 1.7 0 0 0 0l100.6-59q1.3-0.8 2.5-1.7 0.4-0.3 0.7-0.6 0.9-0.8 1.6-1.6 0.4-0.4 0.7-0.7 0.9-1.1 1.7-2.3 0.1-0.1 0.2-0.3 0.1-0.1 0.1-0.1 0.9-1.4 1.6-3 0.1 0 0.1-0.1 0.1-0.2 0.1-0.3 0.5-1 0.9-2 0.2-0.6 0.3-1.1 0.1-0.3 0.2-0.6 0.1-0.3 0.2-0.6 0.3-1.1 0.6-2.2 0.1-0.4 0.2-0.8 0-0.3 0.1-0.6 0.1-0.3 0.1-0.7 0.2-1.1 0.3-2.1 0.1-0.6 0.2-1.2 0-0.2 0-0.4 0-0.3 0.1-0.5 0-1 0.1-2 0-1.1 0-2.1 0-0.1 0-0.2 0-0.9 0-1.9z"/><path class="M" d="m1703.8 1865.7c23.9 13.8 43.2 47.3 43.1 74.8-0.1 27.4-19.5 38.5-43.4 24.7-23.9-13.8-43.2-47.2-43.1-74.7 0-27.5 19.5-38.6 43.4-24.8z"/><path class="U" d="m2128 1513.9l-573.2 328c-25 14.4-55.7 14.4-80.7-0.1l-371.5-215.9c-10.5-6.1-15.9-16.6-16.3-27.2-0.5 11.6 4.9 23.3 16.3 30l371.5 215.8c25 14.5 55.7 14.6 80.7 0.2l573.2-328c11.6-6.7 17.1-18.6 16.7-30.3-0.5 10.7-6 21.4-16.7 27.5z"/><path class="V" d="m2024.9 1187.3l392-225.9-211.3-122.9-392 225.9z"/><path class="W" d="m1849.6 1064.5l356-205.2 175.3 102-355.9 205.1z"/><path class="X" d="m2220.2 1000.9c0 29.2-41 52.9-91.6 52.9-50.6 0-91.6-23.7-91.6-52.9 0-29.2 41-52.9 91.6-52.9 50.6 0 91.6 23.7 91.6 52.9z"/><path class="Y" d="m2270.8 937.8c0 10.2-14.3 18.5-32.1 18.5-17.7 0-32.1-8.3-32.1-18.5 0-10.3 14.4-18.6 32.1-18.6 17.8 0 32.1 8.3 32.1 18.6z"/><path class="Y" d="m2030.2 1076.9c0 10.2-14.4 18.5-32.1 18.5-17.7 0-32.1-8.3-32.1-18.5 0-10.3 14.4-18.6 32.1-18.6 17.7 0 32.1 8.3 32.1 18.6z"/><path class="Y" d="m2108.6 1106.8l-73 42.2c-4.8 2.7-12.8 2.3-18-0.9-5.2-3.2-5.5-8.1-0.8-10.8l73.1-42.2c4.7-2.7 12.8-2.3 18 0.9 5.1 3.2 5.5 8.1 0.7 10.8z"/><path class="Y" d="m2216.9 881.6l-73.1 42.1c-4.7 2.8-12.8 2.4-18-0.8-5.1-3.3-5.5-8.1-0.7-10.9l73-42.1c4.7-2.8 12.8-2.4 18 0.8 5.2 3.3 5.5 8.1 0.8 10.9z"/><path fill-rule="evenodd" class="Z" d="m2128.6 1046.3c-42.3 0-76.8-20.4-76.8-45.4 0-25 34.5-45.3 76.8-45.3 42.4 0 76.8 20.3 76.8 45.3 0 25-34.4 45.4-76.8 45.4zm0-85.9c-39.7 0-72 18.1-72 40.5 0 22.4 32.3 40.6 72 40.6 39.7 0 72-18.2 72-40.6 0-22.4-32.3-40.5-72-40.5z"/><path class="W" d="m2158.2 1021.1l-8-4.8c-5.5 3-12.4 5.2-17.4 5.8l-5.5-6c5.3-0.8 11.8-2.5 17-5.4 5.4-3.1 6.5-6.8 2.5-9.1-3.7-2.3-9.1-2-17.6 0.3-12.1 3.2-21.9 4.2-29.5-0.4-7.1-4.3-7.5-10.5-0.3-16.3l-8.1-4.9 7-4 7.7 4.6c5.5-2.9 10.4-4.3 14.5-5.1l5.3 5.9c-3 0.6-8.6 1.6-14.5 5-5.9 3.4-5.1 6.4-2.3 8.1 3.4 2 8.4 1.4 18.4-1.1 13-3.4 21.8-3.2 29.1 1.2 7 4.3 8.2 10.9 0.2 17.1l8.5 5.1z"/><path class="a0" d="m2416.9 961.4l-392 225.9v148.9l392-225.9z"/><path class="a1" d="m1813.6 1064.4v148.9l211.3 122.9v-148.9z"/><path class="a2" d="m1813.6 1090.2l211.3 122.9 392-225.9"/><path class="a2" d="m1813.6 1125.1l211.3 122.9 392-225.9"/><path class="a2" d="m1813.6 1160l211.3 122.9 392-225.9"/><path class="a2" d="m1813.6 1194.9l211.3 122.9 392-225.9"/><path class="a3" d="m2547.4 1243.8c0 0.5-0.1 0.9-0.1 1.4v1.5h-0.2c-2.6 33.6-50.5 60.3-109.3 60.3-58.8 0-106.6-26.7-109.3-60.3h-0.2v-31.5c0 34.9 49 63.2 109.5 63.2 59.3 0 107.5-27.1 109.5-61v25c0 0.5 0.1 0.9 0.1 1.4z"/><path class="a4" d="m2547.4 1215.2c0 0.7 0 1.4-0.1 2.2-2 33.9-50.2 61-109.5 61-60.5 0-109.5-28.3-109.5-63.2 0-34.9 49-63.3 109.5-63.3 60.5 0 109.6 28.4 109.6 63.3z"/><path fill-rule="evenodd" class="Z" d="m2437.8 1269.4c-50.6 0-91.8-24.3-91.8-54.2 0-29.9 41.2-54.3 91.8-54.3 50.7 0 91.9 24.4 91.9 54.3 0 29.9-41.2 54.2-91.9 54.2zm0-102.7c-47.5 0-86.1 21.7-86.1 48.5 0 26.7 38.6 48.5 86.1 48.5 47.5 0 86.2-21.8 86.2-48.5 0-26.8-38.7-48.5-86.2-48.5z"/><path class="W" d="m2473.3 1239.3l-9.6-5.7c-6.6 3.6-14.8 6.2-20.9 6.9l-6.5-7.2c6.3-0.9 14.1-2.9 20.3-6.5 6.4-3.7 7.7-8 3-10.9-4.4-2.6-10.9-2.3-21.1 0.4-14.4 3.9-26.1 5.1-35.3-0.5-8.5-5-8.9-12.5-0.3-19.4l-9.7-5.8 8.4-4.8 9.2 5.5c6.6-3.6 12.5-5.2 17.3-6.1l6.3 7c-3.5 0.7-10.3 1.9-17.2 5.9-7.2 4.1-6.2 7.7-2.8 9.7 4 2.5 10 1.7 22-1.3 15.6-4 26-3.7 34.8 1.5 8.4 5.1 9.7 12.9 0.3 20.4l10.1 6.1z"/><path class="a5" d="m2547.4 1206.2c0 0.5-0.1 0.9-0.1 1.4v1.5h-0.2c-2.6 33.5-50.5 60.3-109.3 60.3-58.8 0-106.6-26.8-109.3-60.3h-0.2v-31.6c0 34.9 49 63.3 109.5 63.3 59.3 0 107.5-27.2 109.5-61.1v25.1c0 0.5 0.1 0.9 0.1 1.4z"/><path class="a6" d="m2547.4 1177.5c0 0.8 0 1.5-0.1 2.2-2 33.9-50.2 61.1-109.5 61.1-60.5 0-109.5-28.4-109.5-63.3 0-34.9 49-63.2 109.5-63.2 60.5 0 109.6 28.3 109.6 63.2z"/><path fill-rule="evenodd" class="Z" d="m2437.8 1231.8c-50.6 0-91.8-24.4-91.8-54.3 0-29.9 41.2-54.2 91.8-54.2 50.7 0 91.9 24.3 91.9 54.2 0 29.9-41.2 54.3-91.9 54.3zm0-102.8c-47.5 0-86.1 21.8-86.1 48.5 0 26.8 38.6 48.6 86.1 48.6 47.5 0 86.2-21.8 86.2-48.6 0-26.7-38.7-48.5-86.2-48.5z"/><path class="W" d="m2473.3 1201.7l-9.6-5.7c-6.6 3.5-14.8 6.2-20.9 6.8l-6.5-7.1c6.3-0.9 14.1-3 20.3-6.5 6.4-3.7 7.7-8.1 3-10.9-4.4-2.7-10.9-2.3-21.1 0.4-14.4 3.9-26.1 5-35.3-0.5-8.5-5.1-8.9-12.5-0.3-19.5l-9.7-5.8 8.4-4.8 9.2 5.5c6.6-3.5 12.5-5.1 17.3-6.1l6.3 7.1c-3.5 0.7-10.3 1.9-17.2 5.9-7.2 4.1-6.2 7.7-2.8 9.7 4 2.4 10 1.7 22-1.3 15.6-4 26-3.8 34.8 1.5 8.4 5 9.7 12.9 0.3 20.4l10.1 6.1z"/><path class="a7" d="m2547.4 1168.5c0 0.5-0.1 1-0.1 1.4v1.6h-0.2c-2.6 33.5-50.5 60.3-109.3 60.3-58.8 0-106.6-26.8-109.3-60.3h-0.2v-31.6c0 34.9 49 63.3 109.5 63.3 59.3 0 107.5-27.2 109.5-61.1v25.1c0 0.4 0.1 0.9 0.1 1.3z"/><path class="a8" d="m2547.4 1139.9c0 0.8 0 1.5-0.1 2.2-2 33.9-50.2 61.1-109.5 61.1-60.5 0-109.5-28.4-109.5-63.3 0-34.9 49-63.2 109.5-63.2 60.5 0 109.6 28.3 109.6 63.2z"/><path fill-rule="evenodd" class="Z" d="m2437.8 1194.1c-50.6 0-91.8-24.3-91.8-54.2 0-29.9 41.2-54.2 91.8-54.2 50.7 0 91.9 24.3 91.9 54.2 0 29.9-41.2 54.2-91.9 54.2zm0-102.7c-47.5 0-86.1 21.8-86.1 48.5 0 26.8 38.6 48.5 86.1 48.5 47.5 0 86.2-21.7 86.2-48.5 0-26.7-38.7-48.5-86.2-48.5z"/><path class="W" d="m2473.3 1164.1l-9.6-5.8c-6.6 3.6-14.8 6.2-20.9 6.9l-6.5-7.1c6.3-0.9 14.1-3 20.3-6.5 6.4-3.7 7.7-8.1 3-10.9-4.4-2.7-10.9-2.4-21.1 0.4-14.4 3.9-26.1 5-35.3-0.5-8.5-5.1-8.9-12.5-0.3-19.5l-9.7-5.8 8.4-4.8 9.2 5.5c6.6-3.5 12.5-5.2 17.3-6.1l6.3 7c-3.5 0.8-10.3 2-17.2 6-7.2 4.1-6.2 7.7-2.8 9.7 4 2.4 10 1.7 22-1.3 15.6-4.1 26-3.8 34.8 1.5 8.4 5 9.7 12.9 0.3 20.4l10.1 6.1z"/><path class="a9" d="m2547.4 1130.9c0 0.5-0.1 1-0.1 1.4v1.6h-0.2c-2.6 33.5-50.5 60.2-109.3 60.2-58.8 0-106.6-26.7-109.3-60.2h-0.2v-31.6c0 34.9 49 63.2 109.5 63.2 59.3 0 107.5-27.1 109.5-61v25.1c0 0.4 0.1 0.9 0.1 1.3z"/><path class="aa" d="m2547.4 1102.3c0 0.7 0 1.5-0.1 2.2-2 33.9-50.2 61-109.5 61-60.5 0-109.5-28.3-109.5-63.2 0-34.9 49-63.2 109.5-63.2 60.5 0 109.6 28.3 109.6 63.2z"/><path fill-rule="evenodd" class="Z" d="m2437.8 1156.5c-50.6 0-91.8-24.3-91.8-54.2 0-29.9 41.2-54.2 91.8-54.2 50.7 0 91.9 24.3 91.9 54.2 0 29.9-41.2 54.2-91.9 54.2zm0-102.7c-47.5 0-86.1 21.7-86.1 48.5 0 26.7 38.6 48.5 86.1 48.5 47.5 0 86.2-21.8 86.2-48.5 0-26.8-38.7-48.5-86.2-48.5z"/><path class="W" d="m2473.3 1126.5l-9.6-5.8c-6.6 3.6-14.8 6.2-20.9 6.9l-6.5-7.2c6.3-0.9 14.1-2.9 20.3-6.5 6.4-3.7 7.7-8 3-10.8-4.4-2.7-10.9-2.4-21.1 0.3-14.4 3.9-26.1 5.1-35.3-0.4-8.5-5.1-8.9-12.5-0.3-19.5l-9.7-5.8 8.4-4.8 9.2 5.5c6.6-3.6 12.5-5.2 17.3-6.1l6.3 7c-3.5 0.8-10.3 2-17.2 5.9-7.2 4.1-6.2 7.7-2.8 9.8 4 2.4 10 1.6 22-1.3 15.6-4.1 26-3.8 34.8 1.4 8.4 5.1 9.7 13 0.3 20.5l10.1 6.1z"/><path class="ab" d="m2547.4 1093.3c0 0.5-0.1 0.9-0.1 1.4v1.5h-0.2c-2.6 33.6-50.5 60.3-109.3 60.3-58.8 0-106.6-26.7-109.3-60.3h-0.2v-31.5c0 34.9 49 63.2 109.5 63.2 59.3 0 107.5-27.1 109.5-61v25c0 0.5 0.1 0.9 0.1 1.4z"/><path class="ac" d="m2547.4 1064.7c0 0.7 0 1.4-0.1 2.2-2 33.8-50.2 61-109.5 61-60.5 0-109.5-28.3-109.5-63.2 0-34.9 49-63.3 109.5-63.3 60.5 0 109.6 28.4 109.6 63.3z"/><path fill-rule="evenodd" class="Z" d="m2437.8 1118.9c-50.6 0-91.8-24.3-91.8-54.2 0-29.9 41.2-54.3 91.8-54.3 50.7 0 91.9 24.4 91.9 54.3 0 29.9-41.2 54.2-91.9 54.2zm0-102.8c-47.5 0-86.1 21.8-86.1 48.6 0 26.7 38.6 48.5 86.1 48.5 47.5 0 86.2-21.8 86.2-48.5 0-26.8-38.7-48.6-86.2-48.6z"/><path class="W" d="m2473.3 1088.8l-9.6-5.7c-6.6 3.6-14.8 6.2-20.9 6.9l-6.5-7.2c6.3-0.9 14.1-2.9 20.3-6.5 6.4-3.7 7.7-8 3-10.9-4.4-2.6-10.9-2.3-21.1 0.4-14.4 3.9-26.1 5.1-35.3-0.5-8.5-5-8.9-12.5-0.3-19.4l-9.7-5.8 8.4-4.8 9.2 5.5c6.6-3.6 12.5-5.2 17.3-6.1l6.3 7c-3.5 0.7-10.3 1.9-17.2 5.9-7.2 4.1-6.2 7.7-2.8 9.7 4 2.4 10 1.7 22-1.3 15.6-4 26-3.8 34.8 1.5 8.4 5.1 9.7 12.9 0.3 20.4l10.1 6.1z"/><path class="ad" d="m2360.3 1350.7c0 0.5-0.1 0.9-0.1 1.4v1.5h-0.1c-2.7 33.5-50.6 60.3-109.4 60.3-58.7 0-106.6-26.8-109.3-60.3h-0.2v-31.6c0 34.9 49.1 63.3 109.5 63.3 59.3 0 107.5-27.2 109.5-61.1v25.1c0 0.5 0.1 0.9 0.1 1.4z"/><path class="ae" d="m2360.3 1322c0 0.8 0 1.5-0.1 2.2-2 33.9-50.2 61.1-109.5 61.1-60.4 0-109.5-28.4-109.5-63.3 0-34.9 49.1-63.2 109.5-63.2 60.5 0 109.6 28.3 109.6 63.2z"/><path fill-rule="evenodd" class="Z" d="m2250.7 1376.3c-50.6 0-91.8-24.4-91.8-54.3 0-29.9 41.2-54.2 91.8-54.2 50.7 0 91.9 24.3 91.9 54.2 0 29.9-41.2 54.3-91.9 54.3zm0-102.8c-47.5 0-86.1 21.8-86.1 48.5 0 26.8 38.6 48.6 86.1 48.6 47.5 0 86.2-21.8 86.2-48.6 0-26.7-38.7-48.5-86.2-48.5z"/><path class="W" d="m2286.2 1346.2l-9.6-5.7c-6.6 3.5-14.8 6.2-20.9 6.8l-6.5-7.1c6.3-0.9 14.1-3 20.3-6.5 6.4-3.7 7.8-8.1 3-10.9-4.4-2.7-10.9-2.3-21.1 0.4-14.4 3.9-26.1 5-35.3-0.5-8.5-5.1-8.9-12.5-0.3-19.5l-9.7-5.8 8.4-4.8 9.2 5.5c6.6-3.5 12.5-5.2 17.3-6.1l6.3 7c-3.5 0.8-10.3 2-17.2 6-7.2 4.1-6.2 7.7-2.8 9.7 4 2.4 10 1.7 22-1.3 15.6-4 26-3.8 34.8 1.5 8.4 5 9.8 12.9 0.3 20.4l10.2 6.1z"/><path class="af" d="m2360.3 1313c0 0.5-0.1 1-0.1 1.4v1.6h-0.1c-2.7 33.5-50.6 60.3-109.4 60.3-58.7 0-106.6-26.8-109.3-60.3h-0.2v-31.6c0 34.9 49.1 63.2 109.5 63.2 59.3 0 107.5-27.1 109.5-61v25.1c0 0.4 0.1 0.9 0.1 1.3z"/><path class="ag" d="m2360.3 1284.4c0 0.7 0 1.5-0.1 2.2-2 33.9-50.2 61-109.5 61-60.4 0-109.5-28.3-109.5-63.2 0-34.9 49.1-63.2 109.5-63.2 60.5 0 109.6 28.3 109.6 63.2z"/><path fill-rule="evenodd" class="Z" d="m2250.7 1338.6c-50.6 0-91.8-24.3-91.8-54.2 0-29.9 41.2-54.2 91.8-54.2 50.7 0 91.9 24.3 91.9 54.2 0 29.9-41.2 54.2-91.9 54.2zm0-102.7c-47.5 0-86.1 21.8-86.1 48.5 0 26.8 38.6 48.5 86.1 48.5 47.5 0 86.2-21.7 86.2-48.5 0-26.7-38.7-48.5-86.2-48.5z"/><path class="W" d="m2286.2 1308.6l-9.6-5.8c-6.6 3.6-14.8 6.2-20.9 6.9l-6.5-7.1c6.3-1 14.1-3 20.3-6.5 6.4-3.7 7.8-8.1 3-10.9-4.4-2.7-10.9-2.4-21.1 0.4-14.4 3.9-26.1 5-35.3-0.5-8.5-5.1-8.9-12.5-0.3-19.5l-9.7-5.8 8.4-4.8 9.2 5.5c6.6-3.5 12.5-5.2 17.3-6.1l6.3 7c-3.5 0.8-10.3 2-17.2 6-7.2 4.1-6.2 7.7-2.8 9.7 4 2.4 10 1.6 22-1.3 15.6-4.1 26-3.8 34.8 1.5 8.4 5 9.8 12.9 0.3 20.4l10.2 6.1z"/><path class="ah" d="m2360.3 1275.4c0 0.5-0.1 1-0.1 1.4v1.5h-0.1c-2.7 33.6-50.6 60.3-109.4 60.3-58.7 0-106.6-26.7-109.3-60.3h-0.2v-31.5c0 34.9 49.1 63.2 109.5 63.2 59.3 0 107.5-27.1 109.5-61v25c0 0.5 0.1 1 0.1 1.4z"/><path class="ai" d="m2360.3 1246.8c0 0.7 0 1.5-0.1 2.2-2 33.9-50.2 61-109.5 61-60.4 0-109.5-28.3-109.5-63.2 0-34.9 49.1-63.3 109.5-63.3 60.5 0 109.6 28.4 109.6 63.3z"/><path fill-rule="evenodd" class="Z" d="m2250.7 1301c-50.6 0-91.8-24.3-91.8-54.2 0-29.9 41.2-54.2 91.8-54.2 50.7 0 91.9 24.3 91.9 54.2 0 29.9-41.2 54.2-91.9 54.2zm0-102.7c-47.5 0-86.1 21.7-86.1 48.5 0 26.7 38.6 48.5 86.1 48.5 47.5 0 86.2-21.8 86.2-48.5 0-26.8-38.7-48.5-86.2-48.5z"/><path class="W" d="m2286.2 1271l-9.6-5.8c-6.6 3.6-14.8 6.2-20.9 6.9l-6.5-7.2c6.3-0.9 14.1-2.9 20.3-6.5 6.4-3.7 7.8-8 3-10.9-4.4-2.6-10.9-2.3-21.1 0.4-14.4 3.9-26.1 5.1-35.3-0.4-8.5-5.1-8.9-12.5-0.3-19.5l-9.7-5.8 8.4-4.8 9.2 5.5c6.6-3.6 12.5-5.2 17.3-6.1l6.3 7c-3.5 0.8-10.3 2-17.2 5.9-7.2 4.1-6.2 7.7-2.8 9.7 4 2.5 10 1.7 22-1.2 15.6-4.1 26-3.8 34.8 1.4 8.4 5.1 9.8 13 0.3 20.5l10.2 6.1z"/><path class="aj" d="m2360.3 1237.8c0 0.5-0.1 0.9-0.1 1.4v1.5h-0.1c-2.7 33.6-50.6 60.3-109.4 60.3-58.7 0-106.6-26.7-109.3-60.3h-0.2v-31.5c0 34.9 49.1 63.2 109.5 63.2 59.3 0 107.5-27.2 109.5-61v25c0 0.5 0.1 0.9 0.1 1.4z"/><path class="ak" d="m2360.3 1209.2c0 0.7 0 1.4-0.1 2.2-2 33.8-50.2 61-109.5 61-60.4 0-109.5-28.3-109.5-63.2 0-34.9 49.1-63.3 109.5-63.3 60.5 0 109.6 28.4 109.6 63.3z"/><path fill-rule="evenodd" class="Z" d="m2250.7 1263.4c-50.6 0-91.8-24.3-91.8-54.2 0-29.9 41.2-54.3 91.8-54.3 50.7 0 91.9 24.4 91.9 54.3 0 29.9-41.2 54.2-91.9 54.2zm0-102.8c-47.5 0-86.1 21.8-86.1 48.6 0 26.7 38.6 48.5 86.1 48.5 47.5 0 86.2-21.8 86.2-48.5 0-26.8-38.7-48.6-86.2-48.6z"/><path class="W" d="m2286.2 1233.3l-9.6-5.7c-6.6 3.6-14.8 6.2-20.9 6.9l-6.5-7.2c6.3-0.9 14.1-2.9 20.3-6.5 6.4-3.7 7.8-8 3-10.9-4.4-2.6-10.9-2.3-21.1 0.4-14.4 3.9-26.1 5-35.3-0.5-8.5-5.1-8.9-12.5-0.3-19.4l-9.7-5.8 8.4-4.8 9.2 5.5c6.6-3.6 12.5-5.2 17.3-6.2l6.3 7.1c-3.5 0.7-10.3 1.9-17.2 5.9-7.2 4.1-6.2 7.7-2.8 9.7 4 2.4 10 1.7 22-1.3 15.6-4 26-3.8 34.8 1.5 8.4 5 9.8 12.9 0.3 20.4l10.2 6.1z"/><path class="S" d="m1872.7 969.3c0 0-160.2 13.4-173.7 35.6-13.4 22.2 27.5 77.2 48.6 121.1 21 43.9 45.9 79.3 45.9 79.3 0 0 4.8 3.5 16.3-9.2 11.5-12.7 17.2-26.8 17.2-26.8l-44.5-115.8 208.5-28.6c0 0-86.1-18.7-118.3-55.6z"/><path class="S" d="m1797.8 1205.3c0 0-1 19.5-16.9 38.3-15.9 18.8-19.1 24.9-5.3 32.7 13.9 7.7 29.2 2.9 44.9-22.9 15.8-25.8 44.7-40.6 39.5-56.5-5.2-15.9-34.3-24.7-34.3-24.7 0 0-12.2 21.1-27.9 33.1z"/><path class="al" d="m2019.3 1004c0 0 30.5 46.4-31.4 77.9-62 31.4-132.6 64.4-132.6 64.4 0 0 13.1 24.9 11.1 77.6-2 52.6-0.8 93-0.8 93 0 0 5.8 13.4-20.8 13.2-26.5-0.1-27.6-5.3-27.6-5.3 0 0-11.4-123.1-20.5-160-9.2-36.9-18.9-69.1-3.2-92.8 15.7-23.8 118.2-71 118.2-71 0 0 65.4 25.1 107.6 3z"/><path class="am" d="m1915.7 744.7c0 0-34.9 29.9-46.4 62.1-11.5 32.2-18.2 82.3-24.7 90.9-6.4 8.5-42.7 28.3-42.7 28.3 0 0 16.5 3.2 19.3 13.8 2.7 10.6 1.8 14.2 1.8 14.2 0 0 45.5-22.5 52.4-36.8 6.9-14.2 27.9-51.5 27.9-51.5z"/><path class="an" d="m1915.7 744.7c0 0-14.4 14-22.4 26.5-8 12.5-23 37.2-20.6 44.4 2.5 7.1 11.7 19.7 12.4 23.4 0.6 3.7-5.5 137.2-5.5 137.2 0 0 14.4 27.1 67.2 35.5 53.5 8.4 80.3-3.8 80.3-3.8 0 0-17.6-38.6-5.9-81.7 11.6-43 26.2-104.3 14.6-120.5-11.7-16.2-101.7-69.3-120.1-61z"/><path class="S" d="m1925.4 649.2c0 0-47.3 11.6-28.7 66 5 14.5-12.1 22.9-4.5 37.9 7.7 14.9 57.6 18.4 57.7 18 0.1-0.5 10.1-97 10.1-97z"/><path class="ao" d="m1923.3 665c0 0-15.6 5.5-14.5 46.7 0.8 26.9 10.5 37 15.7 41.1 5.3 4.1 12.5 4.4 12.5 4.4l-2.2 15.9c0 0-2.2 11.8 18.5 16.5 20.6 4.7 35.4-17.4 35.4-17.4 0 0-3.7-17.1-0.1-33.5 3.5-16.4 7.3-57.8-9.4-67.1-16.6-9.3-55.9-6.6-55.9-6.6z"/><path class="ap" d="m1937 757.2c0 0 13.3 0.4 20.1-5.6 6.8-6.1 8.8-7.7 8.8-7.7 0 0-3.6 8-11.1 16.1-7.6 8.1-5.7 28.5-5.7 28.5 0 0-15.5-3.1-14.3-12.9 1.2-9.7 2.2-18.4 2.2-18.4z"/><path class="S" d="m1943.9 712.4c-0.2 1.4 0.8 2.6 2.1 2.8 1.4 0.1 2.6-0.8 2.8-2.2 0.1-1.3-0.8-2.5-2.2-2.7-1.3-0.2-2.5 0.8-2.7 2.1z"/><path class="S" d="m1914.5 706.4c-0.5 1.3 0.2 2.7 1.5 3.1 1.3 0.5 2.7-0.2 3.1-1.5 0.5-1.3-0.2-2.7-1.5-3.1-1.3-0.5-2.7 0.2-3.1 1.5z"/><path class="k" d="m1941.3 734.8c0 0-5.8 2.9-12.3 1.6-6.6-1.4-8-3.2-8-3.2 0 0 0.2 6.4 8.4 8.3 8.2 1.9 11.9-6.7 11.9-6.7z"/><path class="aq" d="m1923.8 729.1q0.2 0 0.3 0c4.7 0.4 6.3 0.7 6.3 0.7l0.2-1.1c0-0.1-1.6-0.4-6.4-0.8-1.1-0.1-2.5-0.5-2.8-1.5-0.4-1.1 0.6-3 2.5-4.7 3.8-3.3 4.9-9.9 4.9-10.2l-1.2-0.2c0 0.1-1.1 6.5-4.5 9.5-2.3 2.1-3.4 4.3-2.9 6 0.3 0.9 1.2 2 3.6 2.3z"/><path class="ar" d="m1939.4 703.5c0 0 4.9-1.5 13.3 0.7 5.8 1.5 7.3 4.1 7.3 4.1"/><path class="ar" d="m1925 701.6c0 0-9.2-6.6-16-2"/><path class="ar" d="m1940.8 710.7c0 0 5.9-2.4 12.9 2.9"/><path class="ar" d="m1911.1 705.6c0 0 6.3-3.1 12.7 2.4"/><path class="as" d="m1914 675.8c0 0 0.5 14.5 23.5 23 22.5 8.4 31.7 11.5 31.7 11.5 0 0 3-11 8.8-5.9 8.5 7.5-11.4 30.7-5.9 44.8 5.5 14.2 7.2 24.5 37.8 37.9 30.5 13.4 35.8 50.3 35.8 50.3 0 0 37.6 4.2 48.3-18.5 11.1-23.5-0.6-47.3-35.2-56.5-34.7-9.1-44.5-22.6-40-45.4 5.4-28-0.8-63.7-41.2-77.3-40.4-13.6-64.2 14.5-63.6 36.1z"/><path class="at" d="m1719.6 845.2l160.5 91.6v137.8l-160.5-91.6-6.4-134.7z"/><path class="au" d="m1713.2 848.3l160.5 91.6v137.9l-160.5-91.6z"/><path class="av" d="m1873.7 1077.8l99.7-66.5-99.7-58.3z"/><path class="at" d="m1973.4 1011.3v7l-99.7 59.5v-137.9l6.4-3.1v131.5z"/><path class="aw" d="m1880.1 993.3l39.3 24.2-39.3 22.7z"/><path class="ax" d="m2035.8 809.7c-10.1-3.4-27.9 7.7-28.8 41.3-1 33.6 0 79.3 0 79.3l-76.8 49.9c0 0 16.1 1.4 21.1 12.5 5.1 11 6 15.2 6 15.2 0 0 88.8-49.3 92-61.7 3.2-12.4 7-129.5-13.5-136.5z"/><path class="ao" d="m1936.9 981.7c0 0-18 9-29.9 16.8-11.9 7.8-17.4 25.6-16.9 27.5 0.4 1.8 14.6 12.3 19 12.3 4.3 0 15.8-16.5 24.9-22 9.2-5.4 20.1-17.2 20.1-17.2 0 0 1.2-14.1-17.2-17.4z"/><path class="S" d="m1865.4 1323.2c0 0 10.3 20.3 6.2 25.8-4.2 5.5-44 27.1-54.4 39.6-10.4 12.6-30.6 11.3-41.6 2.3-10.9-9-10.2-16.8 9.6-32.5 19.7-15.8 32-33.6 32-33.6 0 0 27.5 12.2 48.2-1.6z"/><path fill-rule="evenodd" class="ay" d="m1189 1826.8c0 1.2 0 2.5-0.2 3.7-3.3 56.7-83.9 102.1-183 102.1-101.2 0-183.3-47.4-183.3-105.8 0-3.2 0.3-6.4 0.8-9.5-0.5-3.2-0.8-6.4-0.8-9.6 0-3.2 0.3-6.4 0.8-9.5-0.5-3.2-0.8-6.4-0.8-9.6 0-58.3 82.1-105.7 183.3-105.7 101.2 0 183.2 47.4 183.2 105.7 0 1.3 0 34.9 0 38.2zm-43.7-19.1c-14.9-36.5-71.7-63.7-139.5-63.7-67.8 0-124.6 27.2-139.6 63.7 15 36.5 71.8 63.7 139.6 63.7 67.9 0 124.6-27.2 139.5-63.7z"/><path fill-rule="evenodd" class="Y" d="m1189 1777.4c0 1.2 0 2.4-0.2 3.7-3.3 56.6-83.9 102.1-183 102.1-101.2 0-183.3-47.4-183.3-105.8 0-58.4 82.1-105.8 183.3-105.8 101.2 0 183.2 47.4 183.2 105.8zm-39.8 0c0-45.7-64.2-82.8-143.4-82.8-79.2 0-143.5 37.1-143.5 82.8 0 2.3 0.2 4.6 0.5 6.9 6.1 42.4 67.8 75.9 143 75.9 75.3 0 137-33.5 142.9-76.1 0.2-1.2 0.3-2.5 0.4-3.8 0.1-1 0.1-2 0.1-2.9z"/><path class="az" d="m1148.7 1784.1c-5.9 42.6-67.6 76.1-142.9 76.1-75.2 0-136.9-33.5-143-75.9 6.1-42.5 67.8-75.9 143-75.9 75.1 0 136.7 33.3 142.9 75.7z"/><path class="aA" d="m1196 1941q0.1-0.7 0.3-1.3 0-0.5 0.1-0.9 0.1-0.5 0.2-0.9 0.2-0.6 0.4-1.2 0.1-0.3 0.2-0.6 0.2-0.7 0.4-1.4 0.1-0.2 0.2-0.5 0.3-0.9 0.7-1.8 0.1-0.1 0.1-0.2 0.4-0.8 0.8-1.6 0.1-0.3 0.2-0.5 0.4-0.8 0.8-1.5 0.1-0.2 0.2-0.3 0.5-0.9 1.1-1.7 0.1-0.2 0.3-0.5 0.4-0.6 0.8-1.2 0.2-0.3 0.4-0.6 0.4-0.5 0.8-0.9 0.3-0.4 0.6-0.8 0.4-0.4 0.7-0.7 0.5-0.6 1.1-1.2 0.2-0.3 0.5-0.6 1.2-1.1 2.4-2 0.2-0.2 0.4-0.3 1.2-1 2.6-1.8 1-0.6 2-1 0.4-0.2 0.7-0.3 0.6-0.2 1.2-0.4 0.3-0.1 0.7-0.2 0.3-0.1 0.7-0.1 0.4-0.1 0.9-0.2 0.2 0 0.4 0 0.6 0 1.1 0 0.1 0 0.3 0 0.6 0 1.2 0.1 0.1 0.1 0.3 0.1 0.4 0.1 0.9 0.3 0.1 0 0.3 0.1 0.5 0.2 1 0.5l-86.4-50.3q-0.1 0-0.1 0-0.4-0.3-0.8-0.4-0.1-0.1-0.2-0.1-0.1 0-0.3-0.1-0.2-0.1-0.4-0.1-0.2-0.1-0.5-0.1-0.1-0.1-0.3-0.1-0.1 0-0.1-0.1-0.5 0-1-0.1-0.1 0-0.1 0-0.1 0-0.2 0-0.4 0-0.8 0-0.2 0-0.3 0-0.2 0.1-0.5 0.1-0.2 0-0.5 0-0.2 0.1-0.4 0.1-0.3 0.1-0.7 0.2-0.1 0-0.3 0.1-0.2 0-0.4 0.1-0.6 0.2-1.2 0.4-0.2 0.1-0.4 0.1-0.1 0.1-0.2 0.1-1 0.5-2.1 1.1-1.3 0.8-2.6 1.7-0.2 0.2-0.4 0.4-1.2 0.9-2.3 2-0.1 0.1-0.2 0.2-0.2 0.2-0.4 0.3-0.5 0.6-1.1 1.2-0.2 0.2-0.3 0.4-0.2 0.2-0.3 0.3-0.3 0.4-0.7 0.8-0.2 0.3-0.4 0.5-0.1 0.3-0.3 0.5-0.2 0.3-0.5 0.6-0.1 0.2-0.3 0.4-0.2 0.4-0.5 0.8-0.1 0.2-0.3 0.5-0.1 0.1-0.1 0.2-0.5 0.6-0.9 1.4 0 0 0 0.1-0.1 0.1-0.2 0.2-0.3 0.5-0.6 1-0.1 0.3-0.2 0.5-0.1 0.3-0.3 0.5-0.1 0.2-0.2 0.5-0.3 0.5-0.5 1.1-0.1 0.1-0.1 0.2 0 0.1 0 0.1-0.4 0.7-0.6 1.5-0.1 0.1-0.1 0.3-0.1 0.2-0.2 0.5-0.2 0.4-0.3 0.7-0.1 0.3-0.2 0.6-0.1 0.4-0.2 0.7-0.1 0.2-0.1 0.4-0.1 0.4-0.2 0.8-0.1 0.4-0.2 0.8 0 0.2-0.1 0.3 0 0.3-0.1 0.6-0.1 0.7-0.2 1.4 0 0.1-0.1 0.3 0 0.2 0 0.4-0.2 1.4-0.2 2.9c0 5.2 1.9 8.9 4.8 10.6l86.5 50.2c-3-1.7-4.8-5.4-4.8-10.6q0-1.4 0.1-2.9 0.1-0.4 0.1-0.7z"/><path class="aB" d="m1212.3 1916c9.1-5.3 16.5-1 16.6 9.5 0 10.5-7.4 23.3-16.5 28.6-9.2 5.3-16.6 1-16.6-9.5-0.1-10.5 7.3-23.3 16.5-28.6z"/><path class="Y" d="m1308.5 2017.2q0.2-0.9 0.4-1.9 0.1-0.7 0.2-1.4 0.2-0.6 0.3-1.2 0.2-0.9 0.5-1.7 0.1-0.6 0.3-1.1 0.3-0.9 0.6-1.9 0.2-0.4 0.3-0.8 0.5-1.4 1.1-2.7 0.1-0.2 0.1-0.3 0.6-1.2 1.2-2.4 0.2-0.3 0.3-0.7 0.6-1.1 1.2-2.2 0.2-0.2 0.3-0.4 0.7-1.3 1.5-2.5 0.2-0.4 0.5-0.8 0.6-0.8 1.2-1.7 0.3-0.5 0.7-0.9 0.5-0.7 1.1-1.4 0.5-0.6 0.9-1.2 0.5-0.5 1-1 0.8-0.9 1.6-1.8 0.4-0.4 0.8-0.8 1.7-1.6 3.4-3 0.4-0.3 0.7-0.5c1.2-0.9 2.5-1.8 3.8-2.6q1.6-0.9 3.1-1.5 0.5-0.2 0.9-0.4 0.9-0.3 1.8-0.6 0.5-0.1 1-0.3 0.5-0.1 1-0.2 0.7-0.1 1.3-0.2 0.4 0 0.8-0.1 0.8 0 1.5 0 0.2 0 0.4 0 0.9 0.1 1.8 0.2 0.2 0.1 0.4 0.1 0.7 0.2 1.4 0.4 0.2 0.1 0.4 0.2 0.8 0.3 1.6 0.7l-127.7-74.2q-0.1 0-0.2-0.1-0.6-0.3-1.2-0.6-0.1 0-0.2-0.1-0.2 0-0.4-0.1-0.4-0.1-0.7-0.2-0.3-0.1-0.7-0.2-0.2-0.1-0.4-0.1-0.1 0-0.3-0.1-0.7-0.1-1.4-0.1-0.1 0-0.1 0-0.2 0-0.4 0-0.6-0.1-1.2 0-0.2 0-0.4 0-0.3 0-0.7 0.1-0.3 0-0.7 0-0.3 0.1-0.6 0.2-0.5 0.1-1 0.2-0.3 0-0.5 0.1c-0.2 0.1-0.4 0.1-0.6 0.2q-0.8 0.3-1.7 0.6c-0.2 0.1-0.4 0.1-0.6 0.2q-0.2 0.1-0.4 0.2-1.5 0.6-3 1.5c-1.3 0.8-2.6 1.6-3.9 2.6q-0.3 0.2-0.6 0.5-1.8 1.4-3.4 3-0.2 0.1-0.3 0.2-0.3 0.3-0.5 0.6-0.9 0.8-1.7 1.7-0.2 0.3-0.5 0.6-0.2 0.2-0.4 0.5-0.5 0.6-1 1.1-0.3 0.4-0.6 0.8-0.2 0.3-0.5 0.7-0.3 0.4-0.6 0.9-0.3 0.3-0.5 0.6-0.4 0.6-0.7 1.1-0.3 0.4-0.5 0.7-0.1 0.2-0.2 0.3-0.7 1-1.3 2.1 0 0.1-0.1 0.1-0.1 0.2-0.2 0.5-0.4 0.7-0.8 1.4-0.2 0.4-0.4 0.8-0.2 0.3-0.4 0.7-0.1 0.3-0.3 0.6-0.4 0.9-0.8 1.8 0 0.1-0.1 0.3 0 0 0 0-0.5 1.1-0.9 2.2-0.1 0.2-0.2 0.4-0.1 0.5-0.3 0.9-0.2 0.5-0.4 1.1-0.1 0.4-0.2 0.8-0.2 0.5-0.3 1-0.1 0.3-0.2 0.6-0.2 0.6-0.3 1.2-0.2 0.6-0.3 1.2-0.1 0.2-0.1 0.5-0.1 0.4-0.2 0.9-0.2 0.9-0.3 1.9-0.1 0.3-0.1 0.5 0 0.3 0 0.5c-0.2 1.5-0.3 2.9-0.3 4.3 0 7.8 2.7 13.2 7.1 15.7l127.7 74.3c-4.3-2.6-7.1-8-7.1-15.7 0-1.4 0.1-2.9 0.3-4.3q0-0.5 0.1-1.1z"/><path class="aA" d="m1332.5 1980.3c13.5-7.8 24.5-1.5 24.5 14 0.1 15.5-10.8 34.4-24.3 42.3-13.6 7.8-24.5 1.5-24.6-14 0-15.6 10.9-34.5 24.4-42.3z"/><path class="aC" d="m653 2018.2c0 0-3.9 25.6-2.6 29 1.3 3.3 27.6 16.9 35.3 14.6 7.6-2.3 55.5-58.5 55.2-63.2-0.3-4.7-6.5-17-22.6-11.6-16.1 5.3-21.3 5.3-21.3 5.3z"/><path class="S" d="m754.5 2055.1c0 0-6.2 22.4-4 27.8 2.2 5.4 23.1 15.5 25.8 15 2.6-0.5 68-35.9 70.1-40.2 2.1-4.3-12.9-20.8-27.3-15-14.5 5.9-39.6 7-39.6 7z"/><path class="S" d="m639.6 1652.8c0 0-10.4 40.2 0 70.1 10.5 30 9.6 35.4 9.6 35.4l12.7 99.8c0 0-16 41.8-13.5 91.7 2.6 49.9 0 63.5 0 63.5 0 0 6.2 10.9 28 13.6 21.8 2.7 25.9-9.1 25.9-9.1 0 0-3.2-75.3 14-120.6 17.3-45.4 30.9-226 30.9-226z"/><path class="aD" d="m691.1 1694c0 0-10.3 25.1 8 54.7 18.3 29.6 48.1 43 48.1 43l5.5 90.9c0 0-6.8 47.2-5.5 90.9 1.3 43.7 5.5 77.5 5.5 77.5 0 0 2.8 10.6 19 12 16.2 1.4 21.8-5.7 21.8-5.7 0 0 8.5-101.4 19.1-147.2 10.5-45.8-8.8-244.2-8.8-244.2 0 0-51 36.8-112.7 28.1z"/><path class="aE" d="m779.8 1228.2c0 0 4.4 37.5 3.1 43.1-1.3 5.5-4 7.3-4 7.3 0 0 5.9 12.2 3.8 23-2.2 10.7-11.2 40.6-15.6 44.7-4.4 4-25.9 4.6-25.9 4.6l-1.9 21.6-58.2-26.8c0 0 4.4-46.5 4.1-47.5-0.3-1.1 43.6-87.8 43.6-87.8z"/><path class="aF" d="m619.3 1353.7c0 0-17.5 12.9-21.2 61.8-3.8 49-0.6 127.5 10.6 134.7 11.1 7.2 80.1 2.7 80.1 2.7z"/><path class="aG" d="m782.8 1415.5c0 0-32.7-22.7-36.8-28.2-4.1-5.5-3.4-24.2-3.4-24.2 0 0-55.3-25.5-62.9-24.8-7.6 0.7-19.3 10.3-19.3 10.3 0 0-44.2-11.6-48.3 19.7-4.1 31.4 22.1 139.4 29 179.3 6.9 39.8-6.1 115.2-6.1 115.2 0 0 13.7 39.2 79.3 39.2 65.5 0 91.1-29.7 91.1-29.7 0 0-5.1-234.1-9.3-243.1-4.1-9-13.3-13.7-13.3-13.7z"/><path class="aH" d="m746.3 1424.1c-16.6 26-3.5 53.4 17.8 85.6 21.4 32.2 53 75.7 66.1 78.4 13.1 2.8 120-3.3 120-3.3 0 0 7-17.6 3.4-29.9-3.6-12.3-3.6-12.3-3.6-12.3 0 0-95.6-3.7-100.5-7.4-4.8-3.7-35.7-100.5-63.5-114.3-27.8-13.8-39.7 3.2-39.7 3.2z"/><path class="S" d="m793.1 1228.5c-16.4 16.4-31.1 22.8-31.6 38.5-0.6 15.7 2 26.7-2.6 29.2-4.6 2.5-0.2-10.9-12.3-11.5-12.1-0.7-6.8 19.6-4.8 25.4 2.1 5.9-7.9 9-31.3 10.6-23.4 1.6-27.6-9.6-30.3-16.3-2.6-6.7-13.1-35.1-8.5-50.5 4.5-15.3 12.9-18.5 12.9-18.5 0 0-1.3-27.3 29.6-28.7 30.8-1.4 54.9 9.6 68.5 6 13.7-3.7 10.4 15.8 10.4 15.8z"/><path class="aI" d="m952.1 1549.7c0 0 20.6-15.1 29.4-17.1 8.7-2.1 23.5-4.5 23.5-4.5 0 0 2.3 6.1-6.8 8.6-9.2 2.5 6.8 8.6 29.5 2.2 22.7-6.4-1.2 18.3-17.6 27.6-16.3 9.4-58.3 13.6-58.3 13.6 0 0 6-23.2 0.3-30.4z"/></svg>