<svg version="1.2" xmlns="http://www.w3.org/2000/svg" viewBox="0 0 3000 2000" width="3000" height="2000"><defs><clipPath clipPathUnits="userSpaceOnUse" id="cp1"><path d="m1195.84 1071.64h-106.1c-0.95 0-1.71-0.76-1.71-1.7v-75.02c0-0.94 0.76-1.7 1.71-1.7h106.1c0.94 0 1.7 0.76 1.7 1.7v75.02c0 0.94-0.76 1.7-1.7 1.7z"/></clipPath><clipPath clipPathUnits="userSpaceOnUse" id="cp2"><path d="m1217.27 1512.44c0-19.53-192.33-295.46-192.33-295.46-2.43-5.13-5.16-9.2-8.23-11.98l-181.02 9.63c0 0-37.55 83.77-6.74 155.99 30.81 72.21 32.74 141.82 32.74 141.82h177c0 0 0.54-7.39 1.24-19.9 11.6 12.08 19.35 19.9 19.35 19.9z"/></clipPath><clipPath clipPathUnits="userSpaceOnUse" id="cp3"><path d="m871.04 793.94c3.11 2.31 229.49 20.37 247.28 15.06 17.79-5.31 203.32-128.58 213.49-120.95 10.17 7.62 50.83 79.09 48.29 91.01-2.54 11.92-195.7 142.81-224.93 144.08-29.23 1.27-177.28 10.17-189.35 5.08-12.07-5.08-94.78-134.28-94.78-134.28z"/></clipPath><clipPath clipPathUnits="userSpaceOnUse" id="cp4"><path d="m812.65 613.28c7.42-13.96 41.1-34.85 71.77-35.79 17.29-0.53 33.12 9.68 40.32 25.41 16.3 35.59 51.73 120.24 26.91 134.13-11.05 6.18-25.59 6.42-40.24 3.51 2.27 23.34 2.83 77.49 2.4 84.84-0.61 10.33-72.67-8.38-86.04-18.11-13.38-9.72 22.51-97.44 22.51-97.44-9.71-14-47.94-77.13-37.63-96.55z"/></clipPath><clipPath clipPathUnits="userSpaceOnUse" id="cp5"><path d="m743.49 892.02c0 0-125.78 174.91-137.57 184.74-11.79 9.83-182.77 170.98-176.88 184.74 5.9 13.75 64.79 77.26 92.98 71 28.19-6.27 165.86-150.37 172.99-158.2 7.13-7.83 121.61-160.12 127.19-180.48 5.58-20.37-46.76-92.75-78.71-101.8z"/></clipPath><clipPath clipPathUnits="userSpaceOnUse" id="cp6"><path d="m1839.74 668.13c0 0 105.83 96.42 90.38 113.95-15.46 17.53-39.01 27.61-44.47 21.28-5.45-6.34-83.41-121.64-83.41-121.64z"/></clipPath><clipPath clipPathUnits="userSpaceOnUse" id="cp7"><path d="m1734.92 692.61c-4.05-6.76-3.14-15.37 2.23-21.13 42.67-45.73 222.03-237 235.86-235.56 15.71 1.62 118.59 160.9 112.09 186.9-5.78 23.07-272.31 68.26-332.17 78.13-7.14 1.18-14.28-2.13-18.01-8.34z"/></clipPath><clipPath clipPathUnits="userSpaceOnUse" id="cp8"><path d="m2008.1 542.67c31.32 52.22 65.75 89.13 76.91 82.44 11.16-6.69-5.18-54.45-36.5-106.68-31.32-52.23-65.76-89.14-76.92-82.45-11.16 6.7 5.19 54.46 36.51 106.69z"/></clipPath></defs><style>.a{fill:#f6f9ff}.b{fill:#eaf2fc}.c{fill:#1b3d9e}.d{fill:#6880e4}.e{fill:#d4dfff}.f{fill:#fff}.g{fill:#fe8e9c}.h{fill:#e57492}.i{fill:#1c056d}.j{fill:#fc476a}.k{opacity:.4;fill:#6880e4}.l{fill:#f9c438}.m{fill:#f6ab36}.n{fill:#68a9fd}.o{opacity:.2;fill:#1c056d}</style><path class="a" d="m986.8 136.5c-200.2 11.2-395.6 89.1-534.4 238.7-172.6 186-217.5 475.8-159.9 716.5 36.2 150.7 114.9 292.2 234 392.9 52.7 44.6 111.8 82.3 175.9 108.2 257.8 104.4 580.4 63.7 844.3 5.8 231.5-50.8 458-124.7 673.5-223.6 201.6-92.4 406.3-202.4 525.7-397.3 145.4-237.3 104.2-587.4-178.4-699-212.3-83.8-413.5 28.8-582.3 151.6-31.8 23.2-63.9 48.2-101.9 58.5-100 27.1-223.6-121.6-299.6-173.1-110.9-75.1-231.7-135.1-363.7-162.1-76.4-15.7-155.2-21.4-233.2-17.1z"/><path class="b" d="m751.1 1814.7c-58.5-56.8-101.3-127.1-121.7-206.1 17.5-2.2 31.6 10.9 44.4 23 44.6 42.3 86.8 87.2 126.2 134.4-73.4-110.5-91.2-246.5-105.3-378.4 39.4 12.8 67.2 54.9 88 90.7 45.9 78.9 91.3 159.7 113 248.3-23.5-147.1 1.5-286 68.3-419.1 67.4 126.5 110.3 279.1 98.5 421.9 14-114.1 68.8-225.3 153.3-303.3 21.2 99.8 6.9 217.3-47.8 303.5 27.6-75.6 85.8-133.3 161.1-161.5 6.9 78.4-14.7 189-68.3 246.6z"/><path class="b" d="m1783.8 1811.4h536.3c104-68.8 187-165.4 235.5-280.3-109 14.1-222.6 74.7-281.1 167.7 14.8-29.8 31.4-55.6 46.2-85.4 47.2-95.2 95.5-195.6 91.3-301.9-65.9 32.4-118.3 88.6-161.1 148.3-44.8 62.5-84.4 128.8-118 198 10.9-121.9 17.3-244.1 15-366.5-0.8-41.7-2.4-84.1-15.8-123.6-106 137-166.7 310.6-172 483.8 10.1-159.9-19.7-315.7-88.5-460.3-22.5 38.9-45.4 85.5-64.3 126.3-69.8 150.7-62.8 332.5-23.5 493.9z"/><path class="c" d="m1618.3 1758.8h-343.5v-246.4h343.5z"/><path class="d" d="m2068.5 1585.1h-1243.8c-24.9 0-45-20.1-45-45v-775c0-24.8 20.1-44.9 45-44.9h1243.8c24.8 0 44.9 20.1 44.9 44.9v775c0 24.9-20.1 45-44.9 45z"/><path class="e" d="m2030.9 1512.4h-1168.7c-19.2 0-34.8-15.5-34.8-34.8v-682.7c0-19.2 15.6-34.8 34.8-34.8h1168.7c19.3 0 34.8 15.6 34.8 34.8v682.7c0 19.3-15.5 34.8-34.8 34.8z"/><path class="d" d="m1819.4 1814.7h-745.6c-3.8 0-6.8-3-6.8-6.8v-42.3c0-3.7 3-6.8 6.8-6.8h745.6c3.7 0 6.8 3.1 6.8 6.8v42.3c0 3.8-3.1 6.8-6.8 6.8z"/><path class="f" d="m2021.5 1474.5h-694.2c-5.2 0-9.5-4.2-9.5-9.5v-136.9c0-5.3 4.3-9.5 9.5-9.5h694.2c5.2 0 9.5 4.2 9.5 9.5v136.9c0 5.3-4.3 9.5-9.5 9.5z"/><path class="f" d="m1939.8 949.8h-97.3c5-11 17.7-16.9 28.9-12.5 0.2-10.9 10.7-20.5 21.6-19.7 10.9 0.7 20 11.7 18.6 22.6 5.8-3.9 13.3-5.4 19.7-3 6.5 2.4 9.1 5.7 8.5 12.6z"/><path class="f" d="m1546.5 917.5h-156.3c8-6.7 14.5-11.2 25-9.9 6.5-16.7 20.5-33 38.4-32.7 15.7 0.2 29.5 15.3 28.3 30.9 2.4-3.6 7.1-5.5 11.3-4.4 4.2 1 7.5 5 7.8 9.3 6.8-3.2 13.9-6.4 21.4-6.3 7.5 0 22.2 5.9 24.1 13.1z"/><path class="b" d="m1998.6 1353.4h-282.3c-1.5 0-2.7-1.2-2.7-2.7v-11c0-1.5 1.2-2.8 2.7-2.8h282.3c1.5 0 2.8 1.3 2.8 2.8v11c0 1.5-1.3 2.7-2.8 2.7z"/><path class="b" d="m1998.6 1380.1h-282.3c-1.5 0-2.7-1.2-2.7-2.7v-11c0-1.5 1.2-2.8 2.7-2.8h282.3c1.5 0 2.8 1.3 2.8 2.8v11c0 1.5-1.3 2.7-2.8 2.7z"/><path class="b" d="m1998.6 1406.8h-282.3c-1.5 0-2.7-1.2-2.7-2.8v-10.9c0-1.5 1.2-2.8 2.7-2.8h282.3c1.5 0 2.8 1.3 2.8 2.8v10.9c0 1.6-1.3 2.8-2.8 2.8z"/><path class="b" d="m1998.6 1433.5h-282.3c-1.5 0-2.7-1.2-2.7-2.8v-10.9c0-1.6 1.2-2.8 2.7-2.8h282.3c1.5 0 2.8 1.2 2.8 2.8v10.9c0 1.6-1.3 2.8-2.8 2.8z"/><path class="b" d="m1855.5 1460.2h-140c-1.1 0-1.9-0.9-1.9-2v-12.5c0-1.1 0.8-2 1.9-2h140c1.1 0 2 0.9 2 2v12.5c0 1.1-0.9 2-2 2z"/><path class="d" d="m1397.2 1377.1l5.2 10.5c0.3 0.5 0.8 0.9 1.4 1l11.6 1.7c1.5 0.2 2.1 2.1 1 3.2l-8.4 8.1c-0.4 0.5-0.6 1.1-0.5 1.7l2 11.5c0.2 1.6-1.4 2.7-2.7 2l-10.4-5.4c-0.5-0.3-1.2-0.3-1.7 0l-10.4 5.4c-1.4 0.7-3-0.4-2.7-2l2-11.5c0.1-0.6-0.1-1.2-0.6-1.7l-8.3-8.1c-1.2-1.1-0.5-3 1-3.2l11.6-1.7c0.6-0.1 1.1-0.5 1.4-1l5.2-10.5c0.6-1.4 2.6-1.4 3.3 0z"/><path class="d" d="m1458.4 1377.1l5.2 10.5c0.3 0.5 0.8 0.9 1.4 1l11.6 1.7c1.5 0.2 2.2 2.1 1 3.2l-8.3 8.1c-0.5 0.5-0.7 1.1-0.6 1.7l2 11.5c0.3 1.6-1.3 2.7-2.7 2l-10.4-5.4c-0.5-0.3-1.2-0.3-1.7 0l-10.4 5.4c-1.3 0.7-2.9-0.4-2.7-2l2-11.5c0.1-0.6-0.1-1.2-0.5-1.7l-8.4-8.1c-1.1-1.1-0.5-3 1-3.2l11.6-1.7c0.6-0.1 1.1-0.5 1.4-1l5.2-10.5c0.7-1.4 2.7-1.4 3.3 0z"/><path class="d" d="m1519.7 1377.1l5.1 10.5c0.3 0.5 0.8 0.9 1.5 1l11.5 1.7c1.6 0.2 2.2 2.1 1.1 3.2l-8.4 8.1c-0.5 0.5-0.7 1.1-0.5 1.7l1.9 11.5c0.3 1.6-1.3 2.7-2.7 2l-10.3-5.4c-0.6-0.3-1.2-0.3-1.8 0l-10.3 5.4c-1.4 0.7-3-0.4-2.7-2l1.9-11.5c0.1-0.6-0.1-1.2-0.5-1.7l-8.4-8.1c-1.1-1.1-0.5-3 1-3.2l11.6-1.7c0.6-0.1 1.2-0.5 1.4-1l5.2-10.5c0.7-1.4 2.7-1.4 3.4 0z"/><path class="d" d="m1580.9 1377.1l5.2 10.5c0.2 0.5 0.8 0.9 1.4 1l11.6 1.7c1.5 0.2 2.1 2.1 1 3.2l-8.4 8.1c-0.4 0.5-0.6 1.1-0.5 1.7l2 11.5c0.2 1.6-1.4 2.7-2.7 2l-10.4-5.4c-0.6-0.3-1.2-0.3-1.8 0l-10.3 5.4c-1.4 0.7-3-0.4-2.7-2l2-11.5c0.1-0.6-0.1-1.2-0.6-1.7l-8.4-8.1c-1.1-1.1-0.5-3 1.1-3.2l11.6-1.7c0.6-0.1 1.1-0.5 1.4-1l5.1-10.5c0.7-1.4 2.7-1.4 3.4 0z"/><path class="e" d="m1642.1 1377.1l5.2 10.5c0.3 0.5 0.8 0.9 1.4 1l11.6 1.7c1.5 0.2 2.1 2.1 1 3.2l-8.4 8.1c-0.4 0.5-0.6 1.1-0.5 1.7l2 11.5c0.2 1.6-1.4 2.7-2.7 2l-10.4-5.4c-0.5-0.3-1.2-0.3-1.7 0l-10.4 5.4c-1.4 0.7-3-0.4-2.7-2l2-11.5c0.1-0.6-0.1-1.2-0.6-1.7l-8.3-8.1c-1.1-1.1-0.5-3 1-3.2l11.6-1.7c0.6-0.1 1.1-0.5 1.4-1l5.2-10.5c0.7-1.4 2.6-1.4 3.3 0z"/><path class="d" d="m1456.2 1289.7h-108.6c0.5-7.9 7.8-13.9 15.7-13.4-3.6-9.8 4.9-21.2 15.2-22.5 10.3-1.4 20.5 5.3 25.7 14.3-0.5-6.5 8-11.6 13.5-8.1-8.8-8.1-7.6-24 1.5-31.7 9.2-7.7 23.8-7 33.1 0.5z"/><path class="d" d="m1892.2 1246.3c6.7-8.4 19-11.6 29-7.7 1.7 0.7 3.5 1.6 4.6 3.1 1.2 1.5 1.7 3.5 2 5.5 0.7 5 0.6 10.1-0.4 15.1 3.2-5 10.8-5.9 15.9-2.8 5 3.2 7.6 9.4 7.5 15.3 4-6.2 13.2-7.7 19.7-4.2 6.4 3.6 9.9 11.3 9.8 18.6h-98.2c0.5-14.2 1.2-31.9 10.1-42.9z"/><path class="f" d=""/><path class="f" d="m1779.2 965l-143.3 129.4h284z"/><path class="d" d="m1779.2 965h-208.2l-143.7 129.4h208.6z"/><path class="f" d="m1746.5 1094.4h-2.8-107.8v195.1h107.8 2.8 155v-195.1z"/><path class="b" d="m1635.9 1094.4v195.1h-199v-195.1z"/><path class="d" d="m1777.9 1140.1q-2.3 0-4.6 0.2c20.2 2.3 35.9 19.4 35.9 40.2v109h9.1v-109c0-22.3-18.1-40.4-40.4-40.4z"/><path class="e" d="m1773.3 1140.3c-20.2 2.3-35.8 19.4-35.8 40.2v109h71.7v-109c0-20.8-15.7-37.9-35.9-40.2z"/><path class="d" d="m1496.9 1162.2q-1-0.1-2-0.1c-11.6 0-21.1 9.4-21.1 21.1v36.7h4.1v-36.7c0-11 8.3-20 19-21z"/><path class="e" d="m1496.9 1162.2c-10.7 1-19 10-19 21v36.7h38.1v-36.7c0-11-8.4-20-19.1-21z"/><path class="d" d="m1569.3 1162.2q-1-0.1-2-0.1c-11.6 0-21.1 9.4-21.1 21.1v36.7h4.1v-36.7c0-11 8.3-20 19-21z"/><path class="e" d="m1569.3 1162.2c-10.7 1-19 10-19 21v36.7h38.1v-36.7c0-11-8.4-20-19.1-21z"/><path class="b" d="m1901.5 1094.4l-132.8-120 10.5-9.4 140.7 129.4z"/><path class="d" d="m1799.8 1220.1c0 2.8-2.3 5.1-5.1 5.1-2.8 0-5.1-2.3-5.1-5.1 0-2.8 2.3-5.1 5.1-5.1 2.8 0 5.1 2.3 5.1 5.1z"/><path class="f" d="m1476.6 1263.6h-15.4v-6.8h15.4z"/><path class="f" d="m1495.9 1263.6h-15.3v-6.8h15.3z"/><path class="f" d="m1544.1 1236.7h-15.4v-6.7h15.4z"/><path class="f" d="m1610.9 1140.3h-15.4v-6.7h15.4z"/><path class="b" d="m1680.7 1240.1h-15.4v-6.7h15.4z"/><path class="b" d="m1699.2 1240.1h-15.4v-6.7h15.4z"/><path class="b" d="m1663.3 1271.8h-15.4v-6.7h15.4z"/><path class="b" d="m1717 1157.7h-15.4v-6.7h15.4z"/><path class="b" d="m1661.9 1189.2h-15.4v-6.8h15.4z"/><path class="b" d="m1643.6 1189.2h-7.7v-6.8h7.7z"/><path class="b" d="m1869.8 1133.6h-15.4v-6.7h15.4z"/><path class="b" d="m1888.3 1133.6h-15.4v-6.7h15.4z"/><path class="b" d="m1846.4 1218.3h-15.4v-6.7h15.4z"/><path class="b" d="m1865.2 1198.7h-15.4v-6.8h15.4z"/><path class="b" d="m1776.4 1090.8h-15.4v-6.7h15.4z"/><path class="b" d="m1699.2 1090.8h-15.4v-6.7h15.4z"/><path class="b" d="m1720.2 1090.8h-15.4v-6.7h15.4z"/><path class="b" d="m1838.7 1067h-15.4v-6.8h15.4z"/><path class="b" d="m1747.8 1047h-15.4v-6.7h15.4z"/><path class="b" d="m1883.9 1217.9h-15.4v-6.7h15.4z"/><path class="b" d="m1891.6 1226.8h-15.4v-6.7h15.4z"/><path class="b" d="m1842.5 1262.7h-15.4v-6.7h15.4z"/><path class="b" d="m1732.4 1240.1h-15.4v-6.7h15.4z"/><path class="f" d="m1618.6 1263.6h-15.4v-6.8h15.4z"/><path class="f" d="m1618.6 1252h-15.4v-6.7h15.4z"/><path class="f" d="m1599.3 1263.6h-15.4v-6.8h15.4z"/><path class="f" d="m1591.6 1140.3h-15.4v-6.7h15.4z"/><path class="f" d="m1518 1122.4h-15.4v-6.7h15.4z"/><path class="f" d="m1483.3 1140.3h-15.4v-6.7h15.4z"/><path class="f" d="m1573.2 1140.3h-15.4v-6.7h15.4z"/><path class="f" d="m1464.5 1140.3h-15.4v-6.7h15.4z"/><path fill-rule="evenodd" class="f" d="m2022.3 1290.9h-695.8c-5.6 0-10.1-4.5-10.1-10.1v-422.6c0-5.6 4.5-10.2 10.1-10.2h695.8c5.6 0 10.1 4.6 10.1 10.2v422.6c0 5.6-4.5 10.1-10.1 10.1zm-695.8-439.9c-4 0-7.2 3.2-7.2 7.2v422.6c0 4 3.2 7.2 7.2 7.2h695.8c4 0 7.2-3.2 7.2-7.2v-422.6c0-4-3.2-7.2-7.2-7.2z"/><path class="f" d="m1374.2 1162.8h-289.6c-5.2 0-9.4-4.2-9.4-9.4v-167.8c0-5.2 4.2-9.4 9.4-9.4h289.6c5.2 0 9.4 4.2 9.4 9.4v167.8c0 5.2-4.2 9.4-9.4 9.4z"/><path class="b" d="m1195.8 1071.6h-106.1c-0.9 0-1.7-0.7-1.7-1.7v-75c0-0.9 0.8-1.7 1.7-1.7h106.1c1 0 1.7 0.8 1.7 1.7v75c0 1-0.7 1.7-1.7 1.7z"/><g clip-path="url(#cp1)"><path class="e" d="m1081.1 1065.9l40.8-39.1c1.9-1.9 4.9-1.8 6.7 0.1l32.9 33.7 17.2-14.6c1.8-1.6 4.6-1.5 6.3 0.2l18.8 17.4v14h-122.7z"/><path class="e" d="m1167.9 1024.2c0 4.6-3.6 8.2-8.2 8.2-4.5 0-8.2-3.6-8.2-8.2 0-4.5 3.7-8.2 8.2-8.2 4.6 0 8.2 3.7 8.2 8.2z"/></g><path class="b" d="m1368.7 1004.7h-155.6c-0.6 0-1.1-0.5-1.1-1.1v-9.2c0-0.7 0.5-1.2 1.1-1.2h155.6c0.6 0 1.1 0.5 1.1 1.2v9.2c0 0.6-0.5 1.1-1.1 1.1z"/><path class="b" d="m1368.7 1027h-155.6c-0.6 0-1.1-0.5-1.1-1.1v-9.2c0-0.7 0.5-1.2 1.1-1.2h155.6c0.6 0 1.1 0.5 1.1 1.2v9.2c0 0.6-0.5 1.1-1.1 1.1z"/><path class="b" d="m1368.7 1049.3h-155.6c-0.6 0-1.1-0.5-1.1-1.1v-9.2c0-0.7 0.5-1.2 1.1-1.2h155.6c0.6 0 1.1 0.5 1.1 1.2v9.2c0 0.6-0.5 1.1-1.1 1.1z"/><path class="b" d="m1368.7 1071.6h-155.6c-0.6 0-1.1-0.5-1.1-1.1v-9.2c0-0.7 0.5-1.2 1.1-1.2h155.6c0.6 0 1.1 0.5 1.1 1.2v9.2c0 0.6-0.5 1.1-1.1 1.1z"/><path class="b" d="m1368.3 1090.8h-278.8c-0.8 0-1.5-0.7-1.5-1.5v-7.7c0-0.9 0.7-1.5 1.5-1.5h278.8c0.8 0 1.5 0.6 1.5 1.5v7.7c0 0.8-0.7 1.5-1.5 1.5z"/><path class="b" d="m1368.3 1110h-278.8c-0.8 0-1.5-0.7-1.5-1.5v-7.7c0-0.8 0.7-1.5 1.5-1.5h278.8c0.8 0 1.5 0.7 1.5 1.5v7.7c0 0.8-0.7 1.5-1.5 1.5z"/><path class="b" d="m1368.3 1129.2h-278.8c-0.8 0-1.5-0.6-1.5-1.4v-7.8c0-0.8 0.7-1.4 1.5-1.4h278.8c0.8 0 1.5 0.6 1.5 1.4v7.8c0 0.8-0.7 1.4-1.5 1.4z"/><path class="b" d="m1268 1148.5h-178.8c-0.6 0-1.2-0.6-1.2-1.2v-8.3c0-0.7 0.6-1.2 1.2-1.2h178.8c0.7 0 1.2 0.5 1.2 1.2v8.3c0 0.6-0.5 1.2-1.2 1.2z"/><path class="g" d="m390 1413.4c-4.9-4.4 18.7-40.3 19.5-43.6 0.8-3.4-41.8 38-43.5 31.6-1.7-6.4 32.8-39.1 33.8-41.9 1-2.8-34.2 18.7-35.8 14.7-1.5-4 41.7-39.7 43.6-43.3 1.9-3.6-30.9 3.4-31.9 0.1-2.9-10.2 58.1-25.3 58.1-25.3l-1.4 2c8-11.3 23.7-28.9 23.7-28.9 0 0 35.6 27 37.6 29.4 1.5 1.7-18 16.4-30 24.5q0 0 0 0c-2.8 15.4-21.9 29.1-24 32-2 2.9-9.1 49.4-13.3 49.1-5.5-0.5 1.2-40.5-3.6-37.8-3.6 2-30 39.8-32.8 37.4z"/><path class="h" d="m407.6 1330.9c0 0 10.5 10 16.5 10.7 6 0.7 25-7.7 25-7.7 0 0-17.9 12.8-24.4 11.1-6.5-1.7-18.6-12.3-18.6-12.3z"/><path class="c" d="m1217.3 1512.4c0-19.5-192.4-295.4-192.4-295.4-2.4-5.2-5.1-9.2-8.2-12l-181 9.6c0 0-37.6 83.8-6.8 156 30.9 72.2 32.8 141.8 32.8 141.8h177c0 0 0.5-7.4 1.2-19.9 11.6 12.1 19.4 19.9 19.4 19.9z"/><g clip-path="url(#cp2)"><path class="i" d="m874.9 1268.4c0 0-0.1 67.4-31.1 90.3l4.9 7.1c0 0 40.7-22 36.2-97.8z"/><path class="i" d="m967.5 1513.4q0 0 0 0c-0.6 0-1-0.4-1-1 1.8-109.3-43.6-265.3-44-266.8-0.2-0.5 0.1-1.1 0.6-1.3 0.6-0.1 1.1 0.2 1.3 0.7 0.4 1.6 45.9 157.8 44.1 267.5 0 0.5-0.5 0.9-1 0.9z"/><path class="i" d="m1163.8 1525.6c-0.4 0-0.7-0.2-0.9-0.6-37.9-77.6-159.6-289.4-160.8-291.6-0.3-0.5-0.1-1.1 0.4-1.3 0.5-0.3 1.1-0.1 1.4 0.3 1.2 2.2 122.9 214.1 160.8 291.8 0.2 0.5 0 1.1-0.5 1.3q-0.2 0.1-0.4 0.1z"/></g><path class="i" d="m1039.9 1492.5c0 0-22.9-124-30.7-186.4l78.8 206.3h-28.7z"/><path class="g" d="m1471.1 681.7c-3.6-5.6-42.6 12.3-46 12.6-3.5 0.3 43.9-35.6 37.8-38.2-6.1-2.6-43.6 26.5-46.5 27-2.9 0.6 23.7-30.9 20-33.1-3.7-2.1-45.6 35.2-49.5 36.5-3.8 1.3 8.1-30 5-31.5-9.6-4.5-33.8 53.6-33.8 53.6l2.1-1.1c-12.4 6.1-32.2 19-32.2 19 0 0 21.3 39.3 23.4 41.6 1.5 1.8 18.9-15.2 28.8-25.9q0 0 0 0c15.6-0.4 32-17.2 35.2-18.8 3.2-1.6 50.3-1.5 50.5-5.7 0.4-5.5-40.1-5-36.7-9.3 2.5-3.2 43.9-23.6 41.9-26.7z"/><path class="h" d="m1386.9 686.5c0 0 8.3 11.9 8.1 17.9-0.2 6.1-11.4 23.6-11.4 23.6 0 0 15.3-15.8 14.7-22.5-0.7-6.7-9.4-20.2-9.4-20.2z"/><path class="c" d="m827.2 793.9c0 0-106.9 93.8-100.5 154.2 6.4 60.4 95.9 251.9 105.5 280.6 7.3 21.8 167.8 29 189.2-10.8 21.4-39.8 2.1-307-26.2-350.7-28.2-43.7-86.1-57.8-86.1-57.8z"/><path class="c" d="m871 793.9c3.2 2.4 229.5 20.4 247.3 15.1 17.8-5.3 203.3-128.6 213.5-121 10.2 7.7 50.8 79.1 48.3 91.1-2.5 11.9-195.7 142.8-224.9 144-29.3 1.3-177.3 10.2-189.4 5.1-12-5.1-94.8-134.3-94.8-134.3z"/><g clip-path="url(#cp3)"><path class="i" d="m1135.8 819.1c-16.3 0-158.9-5.9-160.4-5.9-0.5-0.1-0.9-0.5-0.9-1.1 0-0.5 0.5-1 1-0.9 1.5 0 144.1 5.9 160.3 5.9 12.8 0 143.2-79.9 210.4-122.1 0.5-0.3 1.1-0.1 1.4 0.4 0.3 0.4 0.1 1-0.3 1.3-8 5-195 122.4-211.5 122.4z"/></g><path class="g" d="m812.7 613.3c7.4-14 41.1-34.9 71.7-35.8 17.3-0.5 33.1 9.7 40.3 25.4 16.3 35.6 51.8 120.2 27 134.1-11.1 6.2-25.6 6.4-40.3 3.5 2.3 23.4 2.8 77.5 2.4 84.9-0.6 10.3-72.7-8.4-86-18.1-13.4-9.8 22.5-97.5 22.5-97.5-9.7-14-48-77.1-37.6-96.5z"/><g clip-path="url(#cp4)"><path class="h" d="m934.5 608.4c0 0-21.1 10.6-37.8 5.2 0 0-23.6 17.6-53.8 8.6 0 0 12.6 29.7 8.1 36.6-4.5 7 0 0 0 0 0 0-23.8-44.8-20.6-48.6 3.2-3.9 84.2-25.7 88.9-24.5 4.6 1.1 15.2 22.7 15.2 22.7z"/></g><path class="f" d="m939.5 687.7c0 0-18.6 10.4-40.7 0 0 0 12.6 17.2 26 16.3 17.7-1.1 14.7-16.3 14.7-16.3z"/><path class="h" d="m900.5 622.7c0 0 42.5 35.1 36.7 41.4-5.9 6.3-30.8 1.4-30.8 1.4 1 3.1 3.7 5.2 6.9 5.5 9.1 0.9 26.7 1.9 28.5-5.7 3.3-13.3-41.3-42.6-41.3-42.6z"/><path class="h" d="m911.4 740.5c0 0-17.4-5.2-28.7-14 0 0 4.6 35.6 30.4 43.7z"/><path class="c" d="m919.5 551.3c4.3-0.7 8.1-1.8 10.7-3.4 13.1-8.2-36.6-23.6-85.3-3-29.6 12.5-64.5 49.8-50.9 62.6-10.9 10-21 42.7-3.1 62.3 20.1 21.9 55.4 40.5 59.4 40 3.9-0.4 0.8-32 0.8-32-28.8 2-23.7-28.3-19.4-29.3 4.3-1 17.6 14.3 19.3 10.3 1.3-3-9.2-29.7-14.1-42 8.2 3.1 24.3 6.4 45.8-2.9 11.3-4.9 13.2-8.1 10.9-10.2 8-0.6 18.4-3.1 31.4-9.1 19.3-8.9 10.5-13-2.6-14.8 8.4-1.2 18.4-3.9 29.7-9.1 24.1-11-5.8-17-32.6-19.4z"/><path class="c" d="m743.5 892c0 0-125.8 174.9-137.6 184.8-11.8 9.8-182.8 170.9-176.9 184.7 5.9 13.8 64.8 77.3 93 71 28.2-6.3 165.9-150.4 173-158.2 7.1-7.8 121.6-160.1 127.2-180.5 5.6-20.3-46.8-92.7-78.7-101.8z"/><g clip-path="url(#cp5)"><path class="i" d="m437.6 1290.5c-0.3 0-0.5-0.1-0.7-0.3-0.4-0.4-0.4-1.1 0-1.4 1.8-1.8 177.7-172.3 188-190 10.4-17.8 126.1-201.3 127.3-203.1 0.3-0.5 0.9-0.7 1.4-0.4 0.4 0.3 0.6 1 0.3 1.4-1.2 1.9-116.9 185.4-127.3 203.1-10.5 17.9-181.1 183.4-188.3 190.4q-0.3 0.3-0.7 0.3z"/></g><path class="i" d="m768.4 1076l53.8-82.2c0 0-5.2 115.2-37.1 123z"/><path class="i" d="m1013.3 929.5c0 0-7-49.3-18.1-62.3 0 0 121.3 54.8 160 55.9 0 0-116.2 10.1-141.9 6.4z"/><path class="f" d="m913.8 825.4c0 0 6.4 57.4-13.3 51.9-19.8-5.6-91.2-38.8-77.9-79.2z"/><path class="f" d="m913.8 825.4c0 0 28.1 25.8 36.4 21.9 8.2-4-14.6-47-14.6-47l-22.5-2.2z"/><path class="j" d="m913.8 825.4c0 0-6.8 12.1-2.1 19.1 4.7 7.1 14.4 10.7 17.4 8.7 3-2 10.4-9.9 6.7-15.3-3.7-5.4-22-12.5-22-12.5z"/><path class="j" d="m924.8 849.2c0 0-7.5 199 13 230.3 20.5 31.4 46 43.2 46 43.2 0 0 20.6-40.2 15.7-59.8-4.9-19.6-67-215.2-67-215.2z"/><path class="f" d="m832.2 1228.7c0 0 27.3 42.7 150.1 17.7 0 0 40.2-6.9 42.6-29.4l1.6-16.8c0 0-76.7 50.6-199.8 14.2z"/><path class="j" d="m990 1216.4c0 0 6.3 26.4 2.6 27.5-3.7 1-22.1 6.9-24.8 5.3-2.7-1.7-6.8-25.1-5.6-27 1.2-1.8 22-5.3 27.8-5.8z"/><path class="b" d=""/><path class="i" d="m822.2 994.8c-0.4 0-0.9-0.3-1-0.7-10.9-42.7-31.5-67.9-46.9-81.6-16.7-14.7-31-19.5-31.1-19.5-0.5-0.2-0.8-0.8-0.7-1.3 0.2-0.5 0.8-0.8 1.3-0.6 0.6 0.2 14.7 4.8 31.7 19.9 15.7 13.8 36.6 39.3 47.7 82.6 0.1 0.5-0.2 1-0.8 1.2q-0.1 0-0.2 0z"/><path class="i" d="m1000.4 877.4c-0.4 0-0.8-0.3-0.9-0.8-12.1-48-32.9-73-33.2-73.2-0.3-0.4-0.3-1.1 0.2-1.4 0.4-0.4 1-0.3 1.4 0.1 0.2 0.2 21.4 25.5 33.5 74 0.1 0.6-0.2 1.1-0.7 1.2q-0.2 0.1-0.3 0.1z"/><path class="i" d="m532 1311.3c0 3.5-2.8 6.3-6.3 6.3-3.5 0-6.3-2.8-6.3-6.3 0-3.5 2.8-6.3 6.3-6.3 3.5 0 6.3 2.8 6.3 6.3z"/><path class="i" d="m550.2 1297.8c0 3.5-2.8 6.3-6.3 6.3-3.5 0-6.3-2.8-6.3-6.3 0-3.5 2.8-6.3 6.3-6.3 3.5 0 6.3 2.8 6.3 6.3z"/><path class="i" d="m568.6 1284.4c0 3.5-2.8 6.3-6.3 6.3-3.5 0-6.3-2.8-6.3-6.3 0-3.5 2.8-6.3 6.3-6.3 3.5 0 6.3 2.8 6.3 6.3z"/><path class="i" d="m1325.7 803.4c0 3.5-2.8 6.3-6.3 6.3-3.5 0-6.3-2.8-6.3-6.3 0-3.5 2.8-6.3 6.3-6.3 3.5 0 6.3 2.8 6.3 6.3z"/><path class="i" d="m1343.9 789.9c0 3.5-2.8 6.3-6.3 6.3-3.5 0-6.3-2.8-6.3-6.3 0-3.5 2.8-6.3 6.3-6.3 3.5 0 6.3 2.8 6.3 6.3z"/><path class="i" d="m1362.3 776.5c0 3.5-2.8 6.3-6.3 6.3-3.5 0-6.3-2.8-6.3-6.3 0-3.5 2.8-6.3 6.3-6.3 3.5 0 6.3 2.8 6.3 6.3z"/><path fill-rule="evenodd" class="k" d="m2381 1311.2c0 0-131.4 42.6-222.1-33.8l-314 312.8-10.2 110.1-90.6 3.7-3.8 115.2-156 7.3 0.2-101.7 511.8-509.8c-66.7-96-57.1-228.9 28.6-314.2 96.2-95.9 251.9-95.6 347.7 0.6 45.2 45.5 69 104.2 71.4 163.7q0.3-4.4 0.2-7.9c0 0 20.4 187.4-163.2 254zm13.2-331.7c13.9 14 36.6 14 50.6 0.1 14-14 14.1-36.6 0.1-50.6-13.9-14-36.6-14.1-50.6-0.1-14 13.9-14 36.6-0.1 50.6z"/><path fill-rule="evenodd" class="l" d="m2144.1 1259l-314 312.8-10.2 110-97.6-2.7 3.2 121.7-156 7.3 0.2-101.8 511.8-509.8c-66.7-96-57.1-228.8 28.6-314.2 96.2-95.8 251.8-95.5 347.7 0.7 95.8 96.2 95.5 251.8-0.7 347.6-85.3 85-217.3 94.4-313 28.4zm235.4-348.6c-14 14-14.1 36.6-0.1 50.6 13.9 14 36.6 14.1 50.6 0.1 14-13.9 14.1-36.6 0.1-50.6-13.9-14-36.6-14-50.6-0.1z"/><path class="m" d="m2144.1 1259c0 0 95.3 46.9 218.3 15.4 123.1-31.5 167.9-187.7 167-235.7 0 0 20.4 187.5-163.2 254 0 0-131.4 42.6-222.1-33.7z"/><path class="m" d="m1569.5 1808.1c0 0 146.1-17.2 144.6-20.8-1.4-3.6 8.2-108.2 8.2-108.2 0 0 90.7-5.1 91.5-8 0.7-2.9 16.3-99.3 16.3-99.3l-10.2 110-90.6 3.7-3.8 115.3z"/><path class="m" d="m1569.5 1808.1l260.6-236.3-243 234.2z"/><path class="m" d="m2297.8 838.3c0 0-149.5 7.8-208.6 139.5 0 0-45.2 113.9 39.4 222.4 0 0-83.3-133.2-2.3-255.3 0 0 57.9-74.2 171.5-106.6z"/><path class="k" d="m2016.8 714.3c0 92.3-74.8 167.1-167 167.1-92.3 0-167.1-74.8-167.1-167.1 0-92.2 74.8-167 167.1-167 92.2 0 167 74.8 167 167z"/><path class="b" d="m2007.2 700.1c0 92.3-74.8 167.1-167.1 167.1-92.2 0-167-74.8-167-167.1 0-92.3 74.8-167.1 167-167.1 92.3 0 167.1 74.8 167.1 167.1z"/><path class="c" d="m1839.7 668.1c0 0 105.9 96.4 90.4 114-15.4 17.5-39 27.6-44.4 21.3-5.5-6.4-83.5-121.7-83.5-121.7z"/><g clip-path="url(#cp6)"><path class="i" d="m1876.8 695.5c0 0-66.1 22.9-69.9 17.9-3.9-5.1-15.5-25.2-15.5-25.2 0 0 67-37.5 71.2-31.5 4.2 6 14.2 38.8 14.2 38.8z"/></g><path class="n" d="m1734.9 692.6c-4-6.7-3.1-15.4 2.3-21.1 42.6-45.8 222-237 235.8-235.6 15.7 1.6 118.6 160.9 112.1 186.9-5.8 23.1-272.3 68.3-332.2 78.1-7.1 1.2-14.3-2.1-18-8.3z"/><g clip-path="url(#cp7)"><path class="c" d="m1775.3 611.3c0 0-2.6 53.4 52.3 99.4 0 0-100.6 14.3-106.7 4.2-6.1-10.1-16.3-18.4-13.2-27.1 3.1-8.7 67.6-76.5 67.6-76.5z"/><path class="o" d="m2073.6 567.8c0 0-72.6 2.1-127.7 52.7-55.1 50.6-183.9 62.3-183.9 62.3l14.5 24.2c0 0 261.5-30.8 296.5-48.8 35.1-18 19.5-71.8 0.6-90.4z"/></g><path class="c" d="m2008.1 542.7c31.3 52.2 65.8 89.1 76.9 82.4 11.2-6.7-5.2-54.4-36.5-106.7-31.3-52.2-65.7-89.1-76.9-82.4-11.2 6.7 5.2 54.4 36.5 106.7z"/><g clip-path="url(#cp8)"><path class="f" d="m1993.9 534.1c0 0 30.9-34.6 44.3-12.8 13.3 21.9 14.9 30.3-30.7 45.8z"/><path class="i" d="m1985.3 436.9c0 0-10.5 8-0.1 35.7 9 23.9 70.2 142.6 108.7 147.2 0 0-3.3 16.9-14.1 18-10.9 1.1-55.5-36.2-69.2-63.7-13.8-27.4-58.2-102.6-60.3-116.2-2.1-13.6 24.7-32.2 35-21z"/></g></svg>